<?xml version="1.0" standalone="no"?>
<!DOCTYPE svg PUBLIC "-//W3C//DTD SVG 1.1//EN" "http://www.w3.org/Graphics/SVG/1.1/DTD/svg11.dtd" >
<!--
2013-9-30: Created.
-->
<svg>
<metadata>
Created by iconfont
</metadata>
<defs>

<font id="iconfont" horiz-adv-x="1024" >
  <font-face
    font-family="iconfont"
    font-weight="500"
    font-stretch="normal"
    units-per-em="1024"
    ascent="896"
    descent="-128"
  />
    <missing-glyph />
    
    <glyph glyph-name="tupian" unicode="&#59059;" d="M0-128V896h1024v-1024H0zM938.666667 810.666667H85.333333v-853.333334h853.333334V810.666667zM512 128l170.666667 512 170.666666-597.333333H170.666667l170.666666 426.666666 170.666667-341.333333zM341.333333 554.666667a85.333333 85.333333 0 1 0 0 170.666666 85.333333 85.333333 0 0 0 0-170.666666z"  horiz-adv-x="1024" />

    
    <glyph glyph-name="changshang" unicode="&#59072;" d="M731.428571-128H0V310.857143h292.571429V676.571429h146.285714V896h146.285714v-219.428571h146.285714v-365.714286h292.571429v-438.857143h-292.571429z m-512 292.571429H73.142857v-146.285715h146.285714v146.285715z m438.857143 365.714285H365.714286v-73.142857h292.571428V530.285714z m0-219.428571H365.714286v-73.142857h292.571428V310.857143z m0-219.428572H365.714286v-73.142857h292.571428v73.142857z m292.571429 73.142858h-146.285714v-146.285715h146.285714v146.285715z"  horiz-adv-x="1024" />

    
    <glyph glyph-name="danchuangjieguo" unicode="&#59125;" d="M955.733333 349.866667a68.266667 68.266667 0 1 0 0 136.533333 68.266667 68.266667 0 0 0 0-136.533333zM580.266667 657.066667v-102.4h-102.4V657.066667h102.4z m102.4-477.866667v-68.266667h-307.2v68.266667h102.4v238.933333h-102.4v68.266667h204.8v-307.2h102.4zM512 793.6C285.764267 793.6 102.4 610.235733 102.4 384c0-226.2016 183.364267-409.6 409.6-409.6 190.7712 0 350.6176 130.628267 396.151467 307.2h105.540266C966.2464 47.9232 759.671467-128 512-128 229.205333-128 0 101.239467 0 384 0 666.760533 229.205333 896 512 896c222.8224 0 411.886933-142.609067 482.235733-341.333333h-110.250666C819.234133 695.569067 677.205333 793.6 512 793.6z"  horiz-adv-x="1024" />

    
    <glyph glyph-name="Gcanshuguanli" unicode="&#59127;" d="M512-109.379037c-19.977196 0-39.507559 1.675627-58.833123 4.040122A37.254772 37.254772 0 1 0 418.909616-53.524807c19.288328 0 34.983366-14.726899 36.863792-33.531156 18.469132-2.196933 37.161681-3.704997 56.226592-3.704997 267.336966 0 484.069999 216.733033 484.069999 484.069998a485.187083 485.187083 0 0 1-9.160094 93.090385h18.822876c5.659895-30.198521 8.955295-61.234855 8.955295-93.090385 0-277.632762-225.055313-502.688076-502.688076-502.688075z m446.833845 670.250767a37.236154 37.236154 0 0 0-37.236154 37.236154c0 11.654916 5.455097 21.913476 13.833231 28.746311C853.008696 776.078081 694.531626 877.379037 512 877.379037 357.116218 877.379037 219.584485 804.377558 130.962439 691.198269H107.745697C199.290781 815.213279 346.019845 895.997114 512 895.997114c190.034711 0 355.00949-105.694822 440.429227-261.304709 2.085225 0.372362 4.207685 0.651633 6.404618 0.651633a37.236154 37.236154 0 0 0 0-74.472308zM389.232401 275.195959v232.725961a13.963558 13.963558 0 0 0 27.927115 0v-232.725961a13.963558 13.963558 0 0 0-27.927115 0z m74.472308 2.327259v344.434423a13.963558 13.963558 0 0 0 27.927115 0v-344.434423a13.963558 13.963558 0 0 0-27.927115 0z m74.472307-1.750099v195.489807a13.963558 13.963558 0 1 0 27.927115 0v-195.489807a13.963558 13.963558 0 0 0-27.927115 0z m74.472308-0.57716v232.725961a13.963558 13.963558 0 0 0 27.927115 0v-232.725961a13.963558 13.963558 0 0 0-27.927115 0zM716.798846 318.836731l55.85423-167.562692H251.346924l55.85423 167.562692h23.849757l-43.17532-140.882988h449.049396L691.19899 318.836731H716.798846zM51.891466 542.793578A481.742739 481.742739 0 0 1 27.930001 393.309038c0-194.037597 114.445319-360.948656 279.271153-438.139203v-20.647447C131.744398 12.978964 9.311924 188.696374 9.311924 393.309038c0 52.912574 8.731878 103.646834 23.980083 151.495292A37.124445 37.124445 0 0 0 9.311924 579.489807a37.236154 37.236154 0 1 0 74.472308 0 37.143063 37.143063 0 0 0-31.892766-36.696229z"  horiz-adv-x="1024" />

    
    <glyph glyph-name="shujuyuan" unicode="&#58998;" d="M994.503192 707.480348L517.513422 508.918391 39.342204 707.480348 516.410738 895.960618l478.092454-188.48027zM475.926467 421.963849V-127.960618l-117.829705 53.558957c-83.567726 37.018691-167.292977 73.879855-251.096993 110.425967a167.214214 167.214214 0 0 0-43.634797 29.536189 217.543881 217.543881 0 0 0-33.868164 40.169218 182.966849 182.966849 0 0 0-21.738636 46.312745A157.526344 157.526344 0 0 0 0.039382 200.00923V624.936543l475.965848-202.972694h-0.078763zM1023.960618 624.936543v-422.721944c0-19.37574-3.701869-38.121375-10.948081-56.315668-7.246212-18.351819-16.540266-35.364664-27.803399-51.274825a241.802938 241.802938 0 0 0-37.72756-42.45335 195.490193 195.490193 0 0 0-40.326744-28.512268l-121.216522-51.196062c-42.138297-17.87924-81.126067-34.26198-116.805784-49.148219-41.429429-17.800477-82.149988-34.892085-122.16168-51.274825V421.963849L1023.960618 624.936543z"  horiz-adv-x="1024" />

    
    <glyph glyph-name="xiaoyuandaping-zongshu-" unicode="&#59056;" d="M865.72 357.03c0-210.7-170.8-381.5-381.5-381.5s-381.5 170.8-381.5 381.5 170.8 381.5 381.5 381.5v-381.5h381.5zM575.78 754.63c33.95-3.5 66.94-11.96 98.47-25.3 41.14-17.4 78.09-42.32 109.83-74.06 31.74-31.74 56.66-68.69 74.06-109.83a341.936 341.936 0 0 0 25.3-98.47H575.78V754.63m-36 37.84v-381.5h381.5c0 210.69-170.81 381.5-381.5 381.5z"  horiz-adv-x="1024" />

    
    <glyph glyph-name="xiaoyuandaping-yonghushu-" unicode="&#59057;" d="M470.97 585.04m-209.5 0a209.5 209.5 0 1 1 419 0 209.5 209.5 0 1 1-419 0ZM692.97 373.99h-0.77c-9.67 0.04-17.47 7.91-17.43 17.57 0.04 9.64 7.87 17.43 17.5 17.43h0.7c82.13 0 149.11 66.64 149.45 148.85 0.27 65.95-43.63 125.12-106.77 143.9-9.26 2.76-14.54 12.5-11.79 21.76 2.76 9.26 12.5 14.54 21.76 11.79 37.44-11.13 71.07-34.53 94.71-65.88 24.43-32.4 37.25-71.03 37.09-111.71-0.42-101.46-83.09-183.71-184.45-183.71zM938.81 100.29c-0.58 0-1.16 0.03-1.75 0.09-9.62 0.96-16.64 9.53-15.68 19.15 0.73 7.34 1.12 14.83 1.15 22.24 0.25 61.77-23.56 119.95-67.06 163.81s-101.48 68.16-163.25 68.41c-9.67 0.04-17.47 7.91-17.43 17.57 0.04 9.64 7.87 17.43 17.5 17.43h0.07c71.12-0.29 137.88-28.26 187.96-78.76 50.08-50.5 77.51-117.48 77.21-188.6-0.04-8.52-0.48-17.12-1.32-25.56-0.9-9.04-8.51-15.78-17.4-15.78zM797.96 69.88c0 190.4-148.6 344.47-331.05 342.15-177.63-2.26-322.92-158.87-322.92-344.76v-26.91c0-7.31 5.66-13.23 12.64-13.23h627.61c7.57 0 13.71 6.42 13.71 14.35v28.4z"  horiz-adv-x="1024" />

    
    <glyph glyph-name="renwu" unicode="&#59124;" d="M658.285714-128V237.714286h146.285715V310.857143H219.428571v-73.142857h146.285715v-365.714286H0V237.714286h146.285714V384h326.875429V530.285714h-146.285714V896h365.714285v-365.714286h-146.285714v-146.285714H877.714286v-146.285714h146.285714v-365.714286H658.285714z"  horiz-adv-x="1024" />

    
    <glyph glyph-name="caiyangdian" unicode="&#59123;" d="M512-128A512 512 0 1 0 512 896a512 512 0 0 0 0-1024zM512 822.857143a438.857143 438.857143 0 1 1 0-877.714286A438.857143 438.857143 0 0 1 512 822.857143z m0-804.571429a365.714286 365.714286 0 1 0 0.073143 731.501715A365.714286 365.714286 0 0 0 512 18.285714z"  horiz-adv-x="1024" />

    
    <glyph glyph-name="chaxun" unicode="&#59122;" d="M981.138286-85.138286a73.069714 73.069714 0 0 0-103.424 0L774.290286 18.285714c-20.041143 19.968-46.445714 69.339429-51.126857 107.154286C646.436571 59.538286 547.913143 18.285714 438.857143 18.285714a438.857143 438.857143 0 1 0 438.857143 438.857143c0-109.056-41.252571-207.579429-107.154286-284.306286 37.814857-4.681143 87.186286-31.158857 107.154286-51.126857L981.138286 18.285714a73.069714 73.069714 0 0 0 0-103.424zM436.589714 786.285714a329.142857 329.142857 0 1 1 0-658.285714 329.142857 329.142857 0 0 1 0 658.285714z"  horiz-adv-x="1024" />

    
    <glyph glyph-name="daochu" unicode="&#59121;" d="M877.714286-128H146.285714a146.285714 146.285714 0 0 0-146.285714 146.285714V749.714286a146.285714 146.285714 0 0 0 146.285714 146.285714h365.714286v-104.886857H178.249143a73.142857 73.142857 0 0 1-73.142857-73.142857v-658.285715a73.142857 73.142857 0 0 1 73.142857-73.142857h658.285714a73.142857 73.142857 0 0 1 73.142857 73.142857V384H1024v-365.714286a146.285714 146.285714 0 0 0-146.285714-146.285714z m31.963428 806.253714L451.364571 219.940571 347.940571 323.437714l467.748572 467.675429H658.285714V896h365.714286v-365.714286h-114.322286V678.253714z"  horiz-adv-x="1024" />

    
    <glyph glyph-name="wenhao" unicode="&#59119;" d="M512.419223-127.860829A511.767763 511.767763 0 1 0 511.860829 895.860829 511.860829 511.860829 0 0 0 1023.721658 384.279197 511.20937 511.20937 0 0 0 512.419223-127.860829zM511.860829 797.025156a412.466763 412.466763 0 0 1-412.559828-412.280631 412.652894 412.652894 0 0 1 412.001434-413.304353 413.211287 413.211287 0 0 1 413.211288 412.839025A412.373697 412.373697 0 0 1 511.860829 797.025156zM653.692812 368.178847c-17.589399-10.981741-36.295586-20.846696-53.512723-33.317487a38.808357 38.808357 0 0 1-16.565678-32.759093c0-23.917861-8.841233-32.200699-32.759093-32.200699-13.029185-1.582115-26.523698-1.582115-39.552883-1.582115h-43.647768c-17.589399 0-26.989026 9.864954-28.012748 27.547419-1.582115 36.388652 5.677002 69.147745 32.2007 96.229836 16.10035 16.10035 35.36493 28.012747 54.536445 39.459816 15.076628 8.841233 30.153256 17.124071 44.764556 27.082091 29.036469 19.729908 33.224421 48.859443 10.888675 73.242632a68.217089 68.217089 0 0 1-29.129534 18.706186c-43.089375 15.635022-81.618536 8.841233-114.284563-24.383188-8.375904-8.282839-15.635022-17.124071-22.894139-25.965304-12.470791-15.076628-24.941582-16.658743-40.01821-4.746346-17.682465 13.029185-35.36493 26.523698-52.489002 39.552882-11.912397 9.306561-15.541956 22.335745-7.817511 34.341209 29.687928 44.671491 66.541908 81.618536 118.472516 98.184213 97.718886 31.735371 185.572817 14.6113 256.768005-61.795562 47.277327-50.999952 56.583888-127.965207 20.75363-184.64216-14.518234-22.801073-35.36493-38.994489-57.700675-52.95433zM511.860829 239.189918c48.301049 0 86.271816-38.436095 86.271816-86.83021a86.737144 86.737144 0 0 0-86.271816-86.271816 87.016341 87.016341 0 0 0-86.83021 86.83021c0 48.301049 38.529161 86.271816 86.83021 86.271816z"  horiz-adv-x="1024" />

    
    <glyph glyph-name="yonghuguiji" unicode="&#59120;" d="M512-109.379037c-19.977196 0-39.507559 1.675627-58.833123 4.040122A37.254772 37.254772 0 1 0 418.909616-53.524807c19.288328 0 34.983366-14.726899 36.863792-33.531156 18.469132-2.196933 37.161681-3.704997 56.226592-3.704997 267.336966 0 484.069999 216.733033 484.069999 484.069998a485.187083 485.187083 0 0 1-9.160094 93.090385h18.822876c5.659895-30.198521 8.955295-61.234855 8.955295-93.090385 0-277.632762-225.055313-502.688076-502.688076-502.688075z m446.833845 670.250767a37.236154 37.236154 0 0 0-37.236154 37.236154c0 11.654916 5.455097 21.913476 13.833231 28.746311C853.008696 776.078081 694.531626 877.379037 512 877.379037 357.116218 877.379037 219.584485 804.377558 130.962439 691.198269H107.745697C199.290781 815.213279 346.019845 895.997114 512 895.997114c190.034711 0 355.00949-105.694822 440.429227-261.304709 2.085225 0.372362 4.207685 0.651633 6.404618 0.651633a37.236154 37.236154 0 0 0 0-74.472308z m-906.942379-18.078152A481.742739 481.742739 0 0 1 27.930001 393.309038c0-194.037597 114.445319-360.948656 279.271153-438.139203v-20.647447C131.744398 12.978964 9.311924 188.696374 9.311924 393.309038c0 52.912574 8.731878 103.646834 23.980083 151.495292A37.124445 37.124445 0 0 0 9.311924 579.489807a37.236154 37.236154 0 1 0 74.472308 0 37.143063 37.143063 0 0 0-31.892766-36.696229z m531.527477-207.051633a340.115028 340.115028 0 0 0-43.529064-44.068988l-14.875843-12.045896-14.950316 11.971423a327.02652 327.02652 0 0 0-43.640772 43.920044 27.443045 27.443045 0 0 0-2.532059 3.127837c-24.966841 32.600253-64.809526 91.638174-73.969619 145.127909a137.922714 137.922714 0 0 0-1.619773 18.357424c-0.279271 37.608515 11.822479 67.360202 39.079344 93.760635A139.393542 139.393542 0 0 0 524.920945 635.344038c36.807938 0 71.530651-14.000794 97.78214-39.451705 27.10792-26.270106 39.135198-55.835613 38.837308-93.164857 0-0.763341-0.037236-7.65203-1.675626-19.046292-8.545697-49.970918-43.529064-104.931481-73.895148-144.755548-0.893668-1.340502-1.824572-2.42035-2.550676-3.183691z m51.106621 162.461339c0.409598 57.492621-52.149233 106.532636-109.604619 106.532635-57.455385 0-110.032834-46.675519-109.604618-104.16814 0 0 0-5.213062 1.247411-13.814613 6.87007-40.066101 42.095472-95.659679 68.123543-129.507342 0.223417-0.372362 0.502688-0.707487 0.819196-1.005377 18.115389-22.229984 39.414469-39.805448 39.414468-39.805448s21.280462 17.780263 39.395851 40.010247c0.204799 0.204799 0.633015 0.595778 0.837813 1.005376 26.028071 34.052463 61.253473 86.667148 68.123544 126.938049 1.247411 8.62017 1.247411 13.814613 1.247411 13.814613z m-172.664045-7.763738c0 33.940754 28.299477 61.514126 63.059426 61.514126s63.059426-27.573372 63.059427-61.514126c0-33.922136-28.299477-61.495508-63.059427-61.495508s-63.059426 27.573372-63.059426 61.495508z m97.465632-0.353744c0 17.500992-16.905214 34.424824-34.406206 34.424824-17.463756 0-34.424824-16.94245-34.424824-34.424824 0-17.463756 16.961068-34.424824 34.424824-34.424824 17.500992 0 34.406206 16.961068 34.406206 34.424824z m161.642144-267.150785H644.374527c-0.186181 0-0.353743 0.111708-0.539925 0.111708H321.648782c-29.472416 0-51.683781 21.038427-51.683781 48.909688 0 27.871261 22.211366 48.89107 51.683781 48.89107h68.309724a13.051272 13.051272 0 0 0 0-26.121162h-68.309724c-12.306549 0-25.56262-7.130723-25.56262-22.769908 0-14.950316 12.865091-22.788526 25.56262-22.788526h388.745445c0.204799 0 0.372362-0.09309 0.558543-0.111708h10.016525c29.472416 0 51.683781-21.019809 51.683781-48.89107C772.653076 172.293848 750.441711 151.274039 720.969295 151.274039H370.893595a13.06989 13.06989 0 0 0 0 26.121162h350.0757c12.306549 0 25.544001 7.130723 25.544001 22.769908 0 15.657803-13.237453 22.769908-25.544001 22.769908z"  horiz-adv-x="1024" />

    
    <glyph glyph-name="shijian2" unicode="&#59118;" d="M512-128A512 512 0 1 0 512 896a512 512 0 0 0 0-1024z m238.811429 289.718857L579.072 373.394286 546.304 713.142857a36.571429 36.571429 0 0 1-73.142857 0l-33.865143-397.458286L438.857143 315.318857l0.365714-0.292571L438.857143 310.857143h5.632l254.610286-200.850286a36.571429 36.571429 0 0 1 51.712 51.712z"  horiz-adv-x="1024" />

    
    <glyph glyph-name="zuwang" unicode="&#59117;" d="M89.547998 549.495536S174.33857 809.889311 465.50506 859.089522c0 0-44.623448-64.134914-87.139175-166.329233 0 0-89.186674 9.695513-110.203656-81.297779 0-0.060221-95.208732-17.283306-178.614231-61.966974z m180.782172 9.635293s-122.729536-26.015289-201.678712-84.308808c0 0-41.070433-173.134159 58.052636-334.946849 0 0 101.953437-22.341834 204.689741-11.923674 0 0-0.722647 64.195135 41.010213 96.292702 0 0-50.645505 130.49799-38.059405 269.30642 0 0-52.030578 12.706542-64.014473 65.580209z m-102.615863-479.656896s130.317329-201.43783 432.443963-173.856805c0 0-107.313068 102.134098-129.353799 135.014533 0 0-84.248587-20.89654-113.214685 38.782052-0.120441 0.060221-108.818583-16.379997-189.875479 0.06022z m345.425229-7.527572s20.83632 9.033087 28.544554 59.799033c0 0 167.834748 58.895724 271.353919 217.034959 0 0 32.759994-2.228161 55.824475 15.65735 0 0 78.346971-73.04756 115.503067-168.617615 0 0-73.10778-208.844961-309.714428-275.990904-0.060221 0-106.46998 69.313884-161.511587 152.117177z m429.432934 573.841878s121.886448-140.253724 66.965282-378.305664c0 0-67.687928 109.420788-101.351231 134.773651 0 0 30.110288 58.715063-4.576764 101.953437 0 0 32.278229 63.231606 38.962713 141.578576z m-514.343947 31.013597s35.831243-28.845656 37.156096-55.222269c0 0 151.33431-9.39441 282.434505-91.956821 0 0 58.534401 48.176462 115.201964 12.405439 0 0 31.194259 57.691313 37.698081 163.679528 0 0-117.129022 154.164677-361.263241 159.70497-0.060221-0.060221-95.389394-129.835564-111.227405-188.610847z m-41.67264-186.503127s70.458075-4.396102 82.321529 79.129838c0 0 139.410636-13.007645 250.638041-79.129838 0 0-26.798157-84.489469 42.154404-125.800785 0 0-69.554766-104.844024-227.814442-180.059525 0 0-31.194259 72.565795-113.154464 59.196827 0.120441 0-33.181538 64.074694-34.145068 246.663483z"  horiz-adv-x="1088" />

    
    <glyph glyph-name="cebianlanzhankai1" unicode="&#59116;" d="M1135.830696 384.455516L652.082528-126.117033l-80.70047 85.133312L974.543419 384.455516 571.382058 810.008416l80.70047 85.019649 403.047698-425.439237 80.70047-85.133312zM1.363952-40.983721L404.41165 384.455516 1.363952 810.008416 81.950759 895.028065l403.161361-425.439237 80.586807-85.133312L81.950759-126.117033l-80.586807 85.133312z"  horiz-adv-x="1139" />

    
    <glyph glyph-name="fanhui" unicode="&#59115;" d="M646.273112 416.703181L458.980236 603.996058V111.547733h241.3568v-80.452266H378.527969V603.996058L191.235092 416.703181 134.274887 473.582933l227.599463 227.51901L418.754102 758.062148 703.152865 473.582933l-56.879753-56.879752z"  horiz-adv-x="1024" />

    
    <glyph glyph-name="Gwangluofugai-wangluofenxi-" unicode="&#59019;" d="M917.11 608.02c31.79 31.79 42.39 72.71 10.61 104.5l-85.8 85.8c-31.79 31.79-76.25 24.71-108.03-7.07l-73.99-73.99 183.22-183.22 73.99 73.98zM933.43 162.3L701.21 394.51l97.53 97.53c0.1 0.1 0.1 0.26 0 0.35L615.87 675.27c-0.1 0.1-0.26 0.1-0.35 0l-97.53-97.53L290.3 805.43c-17.97 17.97-47.11 17.97-65.09 0L90.84 671.06c-18.33-18.33-18.33-48.06 0-66.39l74.48-74.48c7.91-7.91 20.73-7.91 28.64 0l59.23 59.23c16.55 16.55 43.38 16.55 59.93 0 16.55-16.55 16.55-43.38 0-59.93l-59.23-59.23c-7.91-7.91-7.91-20.73 0-28.64l64-64L162.66 222.4l183.22-183.22L501.11 194.4l72.8-72.8c7.91-7.91 20.73-7.91 28.64 0l59.23 59.23c16.55 16.55 43.38 16.55 59.93 0 16.55-16.55 16.55-43.38 0-59.93l-59.23-59.23c-7.91-7.91-7.91-20.73 0-28.64l70.2-70.2c18.33-18.33 48.06-18.33 66.39 0L933.44 97.2c17.96 17.98 17.96 47.12-0.01 65.1zM136.87 169.19c-12.59 12.59-37.05 0.83-38.89-18.7L81.9-20.4c-1.15-12.26 7.92-21.34 20.18-20.18l170.89 16.08c19.53 1.84 31.29 26.29 18.7 38.89l-154.8 154.8z"  horiz-adv-x="1024" />

    
    <glyph glyph-name="xianshimoshi" unicode="&#59112;" d="M1143.992362 89.880654c-167.630765-227.279866-495.372275-285.541778-737.765194-131.125808-19.639667 14.090914-31.321254 30.226105-33.657571 50.084802-3.504476 30.810184 18.106459 55.633555 59.211042 72.717875a339.131056 339.131056 0 0 1 146.749929 122.437628c84.983541 128.132401 62.934547 299.924732-52.056069 404.109881a339.496106 339.496106 0 0 1-103.60107 64.613775c-26.13755 11.243527-42.78381 24.312302-51.83704 43.07585-15.989171 33.073492 0.511069 66.950092 43.51391 95.862019 198.0759 123.167727 457.626149 107.981665 638.252679-37.308067 209.976516-168.944944 250.13197-469.891814 91.189384-684.467955z m-135.944463 633.945094C851.222602 850.059891 626.060023 863.566725 453.756623 757.118269c-14.163924-9.564299-18.252479-14.236933-19.420637-13.871884a34.31466 34.31466 0 0 1 12.119646-8.104101l2.409327-1.022138-0.29204 0.146019a411.045823 411.045823 0 0 0 125.942104-78.193619c138.718839-125.942104 165.367458-332.560164 62.642507-487.268174a398.999187 398.999187 0 0 0-167.776785-143.099434 36.139908 36.139908 0 0 0-6.862932-3.577486 97.103187 97.103187 0 0 1-17.30335-8.39614l1.241169-1.022139c209.830496-133.462125 494.131106-82.793244 640.881035 115.282656 138.20777 186.394314 103.16301 448.937969-79.288768 595.833919zM438.059491 383.526533a219.029746 219.029746 0 1 0-438.059491 0 219.029746 219.029746 0 0 0 438.059491 0z"  horiz-adv-x="1242" />

    
    <glyph glyph-name="yonghugengduo" unicode="&#59113;" d="M685.930822 342.602184L290.609271-52.719366l-56.463098 56.463098L629.467724 399.065283 234.146173 794.386833 290.609271 850.849931 742.39392 399.065283l-56.463098-56.463099z"  horiz-adv-x="1024" />

    
    <glyph glyph-name="shujuguanli" unicode="&#59114;" d="M512-109.379037c-19.977196 0-39.507559 1.675627-58.833123 4.040122A37.254772 37.254772 0 1 0 418.909616-53.524807c19.288328 0 34.983366-14.726899 36.863792-33.531156 18.469132-2.196933 37.161681-3.704997 56.226592-3.704997 267.336966 0 484.069999 216.733033 484.069999 484.069998a485.187083 485.187083 0 0 1-9.160094 93.090385h18.822876c5.659895-30.198521 8.955295-61.234855 8.955295-93.090385 0-277.632762-225.055313-502.688076-502.688076-502.688075z m446.833845 670.250767a37.236154 37.236154 0 0 0-37.236154 37.236154c0 11.654916 5.455097 21.913476 13.833231 28.746311C853.008696 776.078081 694.531626 877.379037 512 877.379037 357.116218 877.379037 219.584485 804.377558 130.962439 691.198269H107.745697C199.290781 815.213279 346.019845 895.997114 512 895.997114c190.034711 0 355.00949-105.694822 440.429227-261.304709 2.085225 0.372362 4.207685 0.651633 6.404618 0.651633a37.236154 37.236154 0 1 0 0-74.472308z m-906.942379-18.078152A481.742739 481.742739 0 0 1 27.930001 393.309038c0-194.037597 114.445319-360.948656 279.271153-438.139203v-20.647447C131.763016 12.978964 9.311924 188.696374 9.311924 393.309038c0 52.912574 8.731878 103.646834 23.980083 151.495292A37.124445 37.124445 0 0 0 9.311924 579.489807a37.236154 37.236154 0 1 0 74.472308 0 37.143063 37.143063 0 0 0-31.892766-36.696229z m513.858922-389.080571a617.747791 617.747791 0 0 0-55.742522-2.438968c-50.175717 0-98.806134 5.659895-137.122136 16.197727-42.318889 11.599062-69.538517 28.336713-78.493813 48.295291a14.410392 14.410392 0 0 0-5.80884 11.859715V551.6744c0 2.960274 0.781959 6.19982 2.643767 8.638788 3.165073 23.179506 28.243623 42.877431 72.629118 56.394155C403.456612 628.622912 455.252102 635.344038 509.952012 635.344038c55.463251 0 109.902508-6.981779 149.242504-19.697925 45.670143-14.559336 69.743316-35.318492 69.743316-60.136389 0-4.35663-0.781959-8.378135-2.401732-12.995417v-137.885478a14.894462 14.894462 0 0 0-14.764135-15.080642 14.894462 14.894462 0 0 0-14.764135 15.080642v107.128415c-37.813314-22.397546-108.822659-36.174923-187.316472-36.174924-82.682879 0-155.38647 14.838607-192.082699 39.135198v-58.833123a14.42901 14.42901 0 0 0 2.383114-8.098864c0-16.998304 66.820278-50.194335 189.699585-50.194335h9.476602c8.191954-0.260653 14.5221-6.721126 14.5221-14.819989 0-8.043009-6.330146-14.819989-14.261447-15.09926h-9.811727c-82.682879 0-155.367852 14.819989-192.082699 39.135197v-58.833123a14.298683 14.298683 0 0 0 2.401732-8.098863c0-16.998304 66.820278-50.194335 189.680967-50.194335a14.894462 14.894462 0 0 0 14.782753-15.080643 14.894462 14.894462 0 0 0-14.782753-15.09926c-82.682879 0-155.367852 14.819989-192.082699 39.135198v-59.093777a14.298683 14.298683 0 0 0 2.401732-8.098863c0-16.998304 66.820278-50.194335 189.680967-50.194335 17.947826 0 35.672235 0.781959 53.359408 2.438968 7.856828 0.781959 15.024788-5.157207 16.253582-13.777377a15.155115 15.155115 0 0 0-13.479488-16.197727z m-56.189356 351.844417c60.50875 0 103.330327 8.378135 128.688147 15.09926 29.52827 8.098863 51.460364 18.841494 58.628324 28.839401v7.316905c0 1.377738 0.260653 2.699621 0.502688 4.095977-11.599062 18.376042-77.916652 44.795093-187.819159 44.795092-122.879307 0-189.699585-32.935378-189.699585-49.933682s66.820278-50.212953 189.699585-50.212953z m173.892838-349.815047a14.5221 14.5221 0 0 0-10.314415-4.338011h-57.864983a14.42901 14.42901 0 0 0-10.314414 4.338011 15.210969 15.210969 0 0 0-4.26354 10.537832v27.01483a74.621252 74.621252 0 0 0-16.123254 9.681399l-17.147249-11.31979a14.633808 14.633808 0 0 0-11.096374-1.917662 15.620567 15.620567 0 0 0-9.234566 7.056251l-26.958975 46.116976a15.49024 15.49024 0 0 0-1.601155 11.319791 14.298683 14.298683 0 0 0 6.572181 9.160094l18.00368 11.077756a96.702291 96.702291 0 0 0-1.042612 14.819989c0 3.48158 0.260653 7.037633 0.521306 11.059138l-18.00368 10.798484a15.49024 15.49024 0 0 0-5.287534 20.498503l26.456287 46.116976a13.963558 13.963558 0 0 0 8.955295 6.981779 14.075266 14.075266 0 0 0 11.357027-1.657009l16.123255-10.016525c4.505575 3.760852 10.575068 8.378135 18.767021 11.859715v17.277575a15.080642 15.080642 0 0 0 4.26354 10.537832 14.5221 14.5221 0 0 0 10.314415 4.338012h57.734656c3.984268 0 7.670648-1.638391 10.314415-4.338012a15.210969 15.210969 0 0 0 4.263539-10.537832v-19.567599c6.311528-3.239545 12.120368-6.795598 17.147249-10.537831l18.264333 11.319791a13.535342 13.535342 0 0 0 11.077756 1.917662 14.782753 14.782753 0 0 0 8.973913-6.981779l26.958975-46.116977a15.564712 15.564712 0 0 0 1.619773-11.338409 14.42901 14.42901 0 0 0-6.572181-9.160093l-20.591593-12.381021c0.781959-7.577557 0.521306-15.080642-0.242035-22.6582l20.889482-12.381021a15.750893 15.750893 0 0 0 6.832834-9.160094 14.391773 14.391773 0 0 0-2.066606-11.543208l-26.437669-46.098358a14.596572 14.596572 0 0 0-8.973913-7.000397 13.572578 13.572578 0 0 0-11.077756 1.657009l-20.33094 12.641674c-5.026881-3.48158-10.314415-6.721126-15.601948-9.420747v-29.118672a15.080642 15.080642 0 0 0-4.26354-10.537832z m8.582933 77.469818c5.026881 4.35663 11.859715 5.157207 17.407902 1.657009l16.383908-10.016525 11.61768 20.219231-16.905214 10.277179a15.136497 15.136497 0 0 0-6.832834 16.476998 74.528162 74.528162 0 0 1 0.260653 31.55764 15.080642 15.080642 0 0 0 6.832834 15.937074l16.383908 10.016525-11.61768 20.219232-14.242829-8.880823a14.484864 14.484864 0 0 0-17.687173 1.899044c-6.125347 5.939167-15.601948 11.859715-26.177016 16.476998a14.447628 14.447628 0 0 0-8.973913 13.758759v14.03803h-28.243623v-12.9768c0-6.721126-4.524193-12.902327-10.83572-14.559336-11.357027-3.220927-17.407902-8.098863-25.860509-16.197727a14.093884 14.093884 0 0 0-17.42652-1.917662l-12.381021 7.838211-11.357027-19.958579 14.000794-8.303662c5.548187-3.220927 8.191954-9.755872 6.832834-16.197727a71.940249 71.940249 0 0 1-1.601155-15.695039c0-6.255674 0.763341-12.436875 2.383114-18.636695a15.00617 15.00617 0 0 0-6.572181-16.737651l-14.261447-8.620169 11.61768-19.958579 13.479488 8.880823a13.907703 13.907703 0 0 0 17.407901-1.042612l1.880426-1.657009c7.409995-6.441855 11.338409-9.942053 21.410789-12.381021 6.572181-1.582537 11.096374-7.503085 10.761248-15.415768v-22.918853h28.262241v23.700812c0 6.19982 3.667761 11.859715 9.215948 14.03803 9.476601 3.760852 18.506368 9.160094 24.836514 15.080642z m-105.341079 55.947321c0 32.134801 25.674328 58.293199 57.083024 58.293199 31.483168 0 57.083024-26.214252 57.083024-58.293199 0-32.097565-25.65571-58.311817-57.083024-58.311816-31.46455 0-57.083024 26.214252-57.083024 58.311816z m87.467726 0c0 16.979686-13.740141 31.017716-30.384702 31.017716-16.625943 0-30.366083-13.758759-30.366083-31.017716 0-16.998304 13.740141-31.036334 30.366083-31.036334 16.644561 0 30.384701 13.758759 30.384702 31.036334z"  horiz-adv-x="1024" />

    
    <glyph glyph-name="houpinggu-zhuangtai-" unicode="&#59108;" d="M522.18 384m-132.63 0a132.63 132.63 0 1 1 265.26 0 132.63 132.63 0 1 1-265.26 0ZM522.17-34.21c-56.44 0-111.21 11.06-162.8 32.88-49.8 21.07-94.53 51.22-132.92 89.61-38.4 38.4-68.54 83.12-89.61 132.92-21.82 51.58-32.88 106.36-32.88 162.8s11.06 111.22 32.88 162.8c21.07 49.8 51.22 94.53 89.61 132.92 38.4 38.4 83.12 68.55 132.92 89.61 51.58 21.82 106.36 32.88 162.8 32.88 87.11 0 170.61-26.53 241.47-76.72 69.27-49.06 121.41-116.9 150.79-196.18 7-18.9-2.64-39.9-21.54-46.91-18.9-7.01-39.9 2.64-46.91 21.54C796.05 638.68 665.92 729.2 522.17 729.2c-190.35 0-345.21-154.86-345.21-345.21s154.86-345.21 345.21-345.21c147.79 0 279.12 93.91 326.81 233.68 6.51 19.08 27.25 29.27 46.33 22.76 19.08-6.51 29.27-27.25 22.76-46.33-13.9-40.75-34-79.01-59.74-113.73a419.774 419.774 0 0 0-90.36-89.55c-71.78-52.22-156.77-79.82-245.8-79.82z"  horiz-adv-x="1024" />

    
    <glyph glyph-name="houpinggu-daping-" unicode="&#59109;" d="M512-9.93c-53.16 0-104.76 10.42-153.35 30.97-46.91 19.84-89.04 48.24-125.21 84.41-36.17 36.17-64.57 78.29-84.41 125.21-20.55 48.59-30.97 100.18-30.97 153.35 0 53.16 10.42 104.76 30.97 153.35 19.84 46.91 48.24 89.04 84.41 125.21 36.17 36.17 78.29 64.57 125.21 84.41 48.59 20.55 100.18 30.97 153.35 30.97 53.17 0 104.76-10.42 153.35-30.97 46.91-19.84 89.04-48.24 125.21-84.41 36.17-36.17 64.57-78.29 84.41-125.21 20.55-48.59 30.97-100.18 30.97-153.35 0-53.17-10.42-104.76-30.97-153.35-19.84-46.91-48.24-89.04-84.41-125.21-36.17-36.17-78.29-64.57-125.21-84.41-48.59-20.55-100.18-30.97-153.35-30.97z m0 714.86c-176.96 0-320.93-143.97-320.93-320.93S335.04 63.07 512 63.07 832.93 207.04 832.93 384 688.96 704.93 512 704.93zM739.9 294.89c-11.91 31.85-30.64 61.11-55.49 85.95-21.79 21.79-46.98 38.88-74.33 50.8 26.54 25.26 43.11 60.91 43.11 100.35 0 76.4-62.16 138.56-138.56 138.56-76.41 0-138.57-62.16-138.57-138.57 0-39.45 16.57-75.09 43.11-100.35-27.35-11.91-52.54-29-74.33-50.8-24.85-24.85-43.58-54.1-55.49-85.95-9.91-26.49-15.09-54.78-15.09-83.83 0-16.02 12.98-29 29-29s29 12.98 29 29c0 29.85 7.21 58.05 19.98 82.95 1.34 2.62 2.75 5.21 4.22 7.75a179.454 179.454 0 0 0 6.99 11.19c0.82 1.21 1.65 2.42 2.5 3.61 33.08 46.49 87.4 76.87 148.68 76.87 65.99 0 123.91-35.23 155.93-87.88a186.95 186.95 0 0 0 6.46-11.54c6.72-13.1 11.9-27.12 15.3-41.82 0.68-2.94 1.29-5.9 1.82-8.9 1.87-10.47 2.85-21.24 2.85-32.24 0-16.02 12.98-29 29-29s29 12.98 29 29c0.01 29.07-5.18 57.36-15.09 83.85zM514.63 612.56c44.42 0 80.56-36.14 80.56-80.57s-36.14-80.56-80.56-80.56-80.57 36.14-80.57 80.57 36.14 80.56 80.57 80.56z"  horiz-adv-x="1024" />

    
    <glyph glyph-name="houpinggu-liuliang-" unicode="&#59110;" d="M512-9.93c-53.16 0-104.76 10.42-153.35 30.97-46.91 19.84-89.04 48.24-125.21 84.41-36.17 36.17-64.57 78.29-84.41 125.21-20.55 48.59-30.97 100.18-30.97 153.35 0 53.16 10.42 104.76 30.97 153.35 19.84 46.91 48.24 89.04 84.41 125.21 36.17 36.17 78.29 64.57 125.21 84.41 48.59 20.55 100.18 30.97 153.35 30.97 53.17 0 104.76-10.42 153.35-30.97 46.91-19.84 89.04-48.24 125.21-84.41 36.17-36.17 64.57-78.29 84.41-125.21 20.55-48.59 30.97-100.18 30.97-153.35 0-53.17-10.42-104.76-30.97-153.35-19.84-46.91-48.24-89.04-84.41-125.21-36.17-36.17-78.29-64.57-125.21-84.41-48.59-20.55-100.18-30.97-153.35-30.97z m0 714.86c-176.96 0-320.93-143.97-320.93-320.93S335.04 63.07 512 63.07 832.93 207.04 832.93 384 688.96 704.93 512 704.93zM434.27 185.43c-19.25 0-35 15.75-35 35V518.04c0 19.25 15.75 35 35 35s35-15.75 35-35v-297.61c0-19.25-15.75-35-35-35zM337.24 421.02c-13.61 13.61-13.61 35.89 0 49.5l72.32 72.32c13.61 13.61 35.89 13.61 49.5 0s13.61-35.89 0-49.5l-72.32-72.32c-13.61-13.61-35.89-13.61-49.5 0zM582 553.04c19.25 0 35-15.75 35-35v-297.61c0-19.25-15.75-35-35-35s-35 15.75-35 35V518.04c0 19.25 15.75 35 35 35zM679.02 317.46c13.61-13.61 13.61-35.89 0-49.5l-72.32-72.32c-13.61-13.61-35.89-13.61-49.5 0s-13.61 35.89 0 49.5l72.32 72.32c13.62 13.61 35.89 13.61 49.5 0z"  horiz-adv-x="1024" />

    
    <glyph glyph-name="houpinggu-fugai-" unicode="&#59111;" d="M233.36 695.81c42.13 37.6 90.39 65.84 143.44 83.92 51.21 17.46 104.69 24.75 158.93 21.67 54.24-3.08 106.55-16.38 155.46-39.52 50.65-23.97 95.41-57.49 133.01-99.62s65.84-90.39 83.92-143.44c17.46-51.21 24.75-104.69 21.66-158.93-3.08-54.24-16.38-106.55-39.52-155.46-23.97-50.65-57.49-95.4-99.62-133.01a423.111 423.111 0 0 0-50.46-38.64c-16.89-11.01-39.5-6.25-50.51 10.64-11.01 16.89-6.25 39.5 10.64 50.51a350.391 350.391 0 0 1 41.72 31.95c142.11 126.84 154.54 345.65 27.71 487.76s-345.65 154.54-487.76 27.71-154.55-345.65-27.71-487.76c19.14-21.45 40.8-40.41 64.37-56.35 16.7-11.29 21.08-33.99 9.78-50.68-11.29-16.69-33.98-21.08-50.68-9.78-28.56 19.32-54.78 42.26-77.93 68.21-37.6 42.13-65.84 90.39-83.92 143.44-17.46 51.2-24.75 104.67-21.67 158.91 3.08 54.24 16.38 106.55 39.52 155.46 23.97 50.65 57.49 95.41 99.62 133.01zM494.04 170.21L381.76-0.86c-9.36-14.26 0.87-33.22 17.93-33.22h224.24c17.05 0 27.28 18.93 17.95 33.2L529.92 170.19c-8.46 12.92-27.4 12.94-35.88 0.02zM512 383.61m-122.65 0a122.65 122.65 0 1 1 245.3 0 122.65 122.65 0 1 1-245.3 0Z"  horiz-adv-x="1024" />

    
    <glyph glyph-name="jingzhunguihua-houpinggu" unicode="&#59107;" d="M194.79-31H72.56V194.89l122.23 98.06zM426.42-31H304.19V377l52.04 42.02 70.19-59.53zM655.81-31H533.58V268.43l122.23 101.56zM890.3-31H768.07V461.05l92.47 78.79 29.76-26.26zM699.44 799h252.15v-238.14zM72.41 293.1l0.15 93.16L367.8 620.68l165.14-155.53 285.09 254.83 43.94-53.67-332.23-293.42-165.81 156.16z"  horiz-adv-x="1024" />

    
    <glyph glyph-name="tongbushitu" unicode="&#59106;" d="M731.428571-128v110.445714h180.589715V164.571429H1024v-292.571429h-292.571429z m180.589715 915.017143H731.428571V896h292.571429v-292.571429h-111.981714V787.017143zM731.428571 164.571429H292.571429V603.428571h438.857142v-438.857142zM107.446857 603.428571H0V896h292.571429v-108.982857H107.446857V603.428571z m0-620.982857H292.571429V-128H0v292.571429h107.446857v-182.125715z"  horiz-adv-x="1024" />

    
    <glyph glyph-name="beixuanzhanzhiku" unicode="&#59104;" d="M512 896c282.760533 0 512-229.239467 512-512 0-282.760533-229.239467-512-512-512-282.760533 0-512 229.239467-512 512C0 666.760533 229.239467 896 512 896zM750.933333 486.4l-68.266666-341.333333H341.333333L273.066667 486.4h68.266666v-68.266667h341.333334v68.266667h68.266666z m-273.066666-102.4h-68.266667v-68.266667h68.266667v68.266667z m0-102.4h-68.266667v-68.266667h68.266667v68.266667z m136.533333 0h-68.266667v-68.266667h68.266667v68.266667z m-238.933333 238.933333h273.066666v-68.266666h-273.066666v68.266666z m34.133333 102.4h204.8v-68.266666h-204.8V622.933333z"  horiz-adv-x="1024" />

    
    <glyph glyph-name="beixuanzhanzhikuliang" unicode="&#59105;" d="M512 896c282.760533 0 512-229.239467 512-512 0-282.760533-229.239467-512-512-512-282.760533 0-512 229.239467-512 512C0 666.760533 229.239467 896 512 896zM750.933333 486.4l-68.266666-341.333333H341.333333L273.066667 486.4h68.266666v-68.266667h341.333334v68.266667h68.266666z m-273.066666-102.4h-68.266667v-68.266667h68.266667v68.266667z m0-102.4h-68.266667v-68.266667h68.266667v68.266667z m136.533333 0h-68.266667v-68.266667h68.266667v68.266667z m-238.933333 238.933333h273.066666v-68.266666h-273.066666v68.266666z m34.133333 102.4h204.8v-68.266666h-204.8V622.933333z"  horiz-adv-x="1024" />

    
    <glyph glyph-name="yewu" unicode="&#59103;" d="M866.461538-128H157.538462a157.538462 157.538462 0 0 0-157.538462 157.538462V187.076923a157.538462 157.538462 0 0 0 157.538462 157.538462h157.538461l78.769231-157.538462h236.307692l78.769231 157.538462h157.538461a157.538462 157.538462 0 0 0 157.538462-157.538462v-157.538461a157.538462 157.538462 0 0 0-157.538462-157.538462zM630.153846 344.615385H393.846154L307.672615 502.153846H78.769231V580.923077h866.461538v-78.769231H711.364923L630.153846 344.615385zM78.769231 738.461538h866.461538v-78.76923H78.769231V738.461538z m0 157.538462h866.461538v-78.769231H78.769231V896z"  horiz-adv-x="1024" />

    
    <glyph glyph-name="shengjigailanqiehuan" unicode="&#59102;" d="M512-128S118.153846 284.672 118.153846 502.153846a393.846154 393.846154 0 0 0 787.692308 0c0-217.481846-393.846154-630.153846-393.846154-630.153846zM512 659.692308a157.538462 157.538462 0 1 1-0.078769-314.998154A157.538462 157.538462 0 0 1 512 659.692308z"  horiz-adv-x="1024" />

    
    <glyph glyph-name="zhichalei" unicode="&#59100;" d="M512-128L0 457.142857l219.428571 438.857143h585.142858l219.428571-438.857143-512-585.142857z m263.753143 695.588571a73.142857 73.142857 0 0 1-103.424 0L517.193143 412.379429 361.984 567.588571a73.142857 73.142857 0 0 1-103.424-103.424L517.193143 205.531429l103.424 103.424 155.136 155.209142a73.069714 73.069714 0 0 1 0 103.424z"  horiz-adv-x="1024" />

    
    <glyph glyph-name="fugailei" unicode="&#59101;" d="M744.667429 88.576a53.540571 53.540571 0 0 0-34.889143-20.699429c-18.066286-9.069714-36.571429-17.481143-55.954286-24.064l14.116571 35.181715a53.613714 53.613714 0 0 0-21.065142 42.130285 54.857143 54.857143 0 0 0 54.857142 54.857143c1.609143 0 2.998857-0.804571 4.608-0.950857l7.606858 18.944c76.873143 60.196571 127.195429 152.868571 127.195428 258.121143a329.142857 329.142857 0 1 1-658.285714 0c0-105.252571 50.322286-197.924571 127.195428-258.121143l7.387429-18.505143c0.877714 0.073143 1.682286 0.512 2.56 0.512a54.857143 54.857143 0 0 0 54.857143-54.857143 53.979429 53.979429 0 0 0-19.309714-40.96l14.628571-36.352a424.667429 424.667429 0 0 0-53.906286 23.259429 53.540571 53.540571 0 0 0-40.96 23.990857C154.331429 168.740571 73.142857 302.518857 73.142857 457.142857a438.857143 438.857143 0 1 0 877.714286 0c0-156.306286-82.944-291.254857-206.189714-368.566857zM292.571429 457.142857a219.428571 219.428571 0 1 0 438.857142 0 219.428571 219.428571 0 0 0-438.857142 0z m361.179428-582.436571H358.912l149.723429 291.108571 145.115428-291.108571z"  horiz-adv-x="1024" />

    
    <glyph glyph-name="sousuokuangqingchu" unicode="&#59099;" d="M512-128a512 512 0 1 0 0 1024 512 512 0 0 0 0-1024z m263.261091 709.445818l-65.815273 65.815273L512 449.815273 314.461091 647.261091l-65.815273-65.815273L446.184727 384 248.645818 186.554182l65.815273-65.815273L512 318.184727l197.445818-197.445818 65.815273 65.815273L577.815273 384l197.445818 197.445818z"  horiz-adv-x="1024" />

    
    <glyph glyph-name="houpinggu" unicode="&#59098;" d="M512 896c282.760533 0 512-229.239467 512-512 0-282.760533-229.239467-512-512-512-282.760533 0-512 229.239467-512 512C0 666.760533 229.239467 896 512 896zM716.8 554.666667v-307.2h-102.4v-102.4h-34.133333v102.4h-136.533334v-102.4h-34.133333v102.4H307.2v307.2H273.066667V622.933333h477.866666v-68.266666h-34.133333z m-71.202133-81.2032l-90.9312-90.9312-61.201067 61.201066 5.597867 5.597867-24.132267 24.132267-120.661333-120.661334 24.132266-24.132266 90.9312 90.9312 61.201067-61.201067-5.597867-5.597867 24.132267-24.132266 120.661333 120.661333-24.132266 24.132267z"  horiz-adv-x="1024" />

    
    <glyph glyph-name="houpingguliang" unicode="&#59097;" d="M512 896c282.760533 0 512-229.239467 512-512 0-282.760533-229.239467-512-512-512-282.760533 0-512 229.239467-512 512C0 666.760533 229.239467 896 512 896zM716.8 554.666667v-307.2h-102.4v-102.4h-34.133333v102.4h-136.533334v-102.4h-34.133333v102.4H307.2v307.2H273.066667V622.933333h477.866666v-68.266666h-34.133333z m-71.202133-81.2032l-90.9312-90.9312-61.201067 61.201066 5.597867 5.597867-24.132267 24.132267-120.661333-120.661334 24.132266-24.132266 90.9312 90.9312 61.201067-61.201067-5.597867-5.597867 24.132267-24.132266 120.661333 120.661333-24.132266 24.132267z"  horiz-adv-x="1024" />

    
    <glyph glyph-name="guanliantianbao" unicode="&#59096;" d="M512 896c282.760533 0 512-229.239467 512-512 0-282.760533-229.239467-512-512-512-282.760533 0-512 229.239467-512 512C0 666.760533 229.239467 896 512 896zM804.420267 304.401067l-24.1664-24.132267-48.264534 48.264533 24.132267 24.132267a34.133333 34.133333 0 1 0 48.298667-48.264533z m-158.344534-158.3104l-48.264533 48.264533 120.695467 120.661333 48.264533-48.264533-120.695467-120.661333zM375.466667 145.066667a68.266667 68.266667 0 0 0-68.266667 68.266666V554.666667a68.266667 68.266667 0 0 0 68.266667 68.266666h273.066666a68.266667 68.266667 0 0 0 68.266667-68.266666v-170.666667l-209.066667-238.933333H375.466667z m273.066666 375.466666h-273.066666v-34.133333h273.066666v34.133333z m0-102.4h-273.066666v-34.133333h273.066666v34.133333z m-102.4-102.4h-170.666666v-34.133333h170.666666v34.133333z m87.108267-182.510933l-72.3968-24.132267 24.132267 72.430934 48.264533-48.298667z"  horiz-adv-x="1024" />

    
    <glyph glyph-name="guanliantianbaoliang" unicode="&#59095;" d="M512 896c282.760533 0 512-229.239467 512-512 0-282.760533-229.239467-512-512-512-282.760533 0-512 229.239467-512 512C0 666.760533 229.239467 896 512 896zM804.420267 304.401067l-24.1664-24.132267-48.264534 48.264533 24.132267 24.132267a34.133333 34.133333 0 1 0 48.298667-48.264533z m-158.344534-158.3104l-48.264533 48.264533 120.695467 120.661333 48.264533-48.264533-120.695467-120.661333zM375.466667 145.066667a68.266667 68.266667 0 0 0-68.266667 68.266666V554.666667a68.266667 68.266667 0 0 0 68.266667 68.266666h273.066666a68.266667 68.266667 0 0 0 68.266667-68.266666v-170.666667l-209.066667-238.933333H375.466667z m273.066666 375.466666h-273.066666v-34.133333h273.066666v34.133333z m0-102.4h-273.066666v-34.133333h273.066666v34.133333z m-102.4-102.4h-170.666666v-34.133333h170.666666v34.133333z m87.108267-182.510933l-72.3968-24.132267 24.132267 72.430934 48.264533-48.298667z"  horiz-adv-x="1024" />

    
    <glyph glyph-name="najianzhandianku" unicode="&#59094;" d="M512 896c282.760533 0 512-229.239467 512-512 0-282.760533-229.239467-512-512-512-282.760533 0-512 229.239467-512 512C0 666.760533 229.239467 896 512 896zM443.938133 622.933333v-111.5136c0-15.906133-97.655467-15.906133-97.655466 0V622.933333a122.0608 122.0608 0 0 1 10.3424-227.6352L322.8672 240.64a74.752 74.752 0 0 1 0-31.8464 73.864533 73.864533 0 1 1 144.315733 31.8464l-33.757866 154.999467A121.992533 121.992533 0 0 1 443.938133 622.933333z m-48.7424-430.08a33.962667 33.962667 0 1 0 0 67.925334 33.962667 33.962667 0 0 0 0-67.925334z m292.010667 175.2064v127.453867l24.3712 36.4544a25.770667 25.770667 0 0 1 2.56 23.893333l-20.411733 51.131734a25.770667 25.770667 0 0 1-23.893334 15.940266h-28.842666a25.838933 25.838933 0 0 1-23.893334-15.940266l-20.3776-51.131734a25.770667 25.770667 0 0 1 2.56-23.893333l24.200534-36.4544v-127.453867a63.6928 63.6928 0 0 1-63.726934-63.6928v-95.573333c0-35.191467 28.535467-63.726933 63.726934-63.726933h63.726933A63.726933 63.726933 0 0 1 750.933333 208.7936v95.573333a63.6928 63.6928 0 0 1-63.726933 63.6928z"  horiz-adv-x="1024" />

    
    <glyph glyph-name="najianzhandiankuliang" unicode="&#59093;" d="M512 896c282.760533 0 512-229.239467 512-512 0-282.760533-229.239467-512-512-512-282.760533 0-512 229.239467-512 512C0 666.760533 229.239467 896 512 896zM443.938133 622.933333v-111.5136c0-15.906133-97.655467-15.906133-97.655466 0V622.933333a122.0608 122.0608 0 0 1 10.3424-227.6352L322.8672 240.64a74.752 74.752 0 0 1 0-31.8464 73.864533 73.864533 0 1 1 144.315733 31.8464l-33.757866 154.999467A121.992533 121.992533 0 0 1 443.938133 622.933333z m-48.7424-430.08a33.962667 33.962667 0 1 0 0 67.925334 33.962667 33.962667 0 0 0 0-67.925334z m292.010667 175.2064v127.453867l24.3712 36.4544a25.770667 25.770667 0 0 1 2.56 23.893333l-20.411733 51.131734a25.770667 25.770667 0 0 1-23.893334 15.940266h-28.842666a25.838933 25.838933 0 0 1-23.893334-15.940266l-20.3776-51.131734a25.770667 25.770667 0 0 1 2.56-23.893333l24.200534-36.4544v-127.453867a63.6928 63.6928 0 0 1-63.726934-63.6928v-95.573333c0-35.191467 28.535467-63.726933 63.726934-63.726933h63.726933A63.726933 63.726933 0 0 1 750.933333 208.7936v95.573333a63.6928 63.6928 0 0 1-63.726933 63.6928z"  horiz-adv-x="1024" />

    
    <glyph glyph-name="yuruwangzhandianku" unicode="&#59092;" d="M512 896c282.760533 0 512-229.239467 512-512 0-282.760533-229.239467-512-512-512-282.760533 0-512 229.239467-512 512C0 666.760533 229.239467 896 512 896zM648.533333 145.066667h-273.066666a68.266667 68.266667 0 0 0-68.266667 68.266666v307.2l204.8 136.533334 204.8-136.533334v-307.2a68.266667 68.266667 0 0 0-68.266667-68.266666z m-204.8 238.933333h-68.266666v-68.266667h68.266666v68.266667z m0-102.4h-68.266666v-68.266667h68.266666v68.266667z m102.4 204.8h-68.266666v-68.266667h68.266666v68.266667z m0-102.4h-68.266666v-68.266667h68.266666v68.266667z m0-102.4h-68.266666v-68.266667h68.266666v68.266667z m102.4 0h-68.266666v-68.266667h68.266666v68.266667z"  horiz-adv-x="1024" />

    
    <glyph glyph-name="yuruwangzhandiankuliang" unicode="&#59091;" d="M512 896c282.760533 0 512-229.239467 512-512 0-282.760533-229.239467-512-512-512-282.760533 0-512 229.239467-512 512C0 666.760533 229.239467 896 512 896zM648.533333 145.066667h-273.066666a68.266667 68.266667 0 0 0-68.266667 68.266666v307.2l204.8 136.533334 204.8-136.533334v-307.2a68.266667 68.266667 0 0 0-68.266667-68.266666z m-204.8 238.933333h-68.266666v-68.266667h68.266666v68.266667z m0-102.4h-68.266666v-68.266667h68.266666v68.266667z m102.4 204.8h-68.266666v-68.266667h68.266666v68.266667z m0-102.4h-68.266666v-68.266667h68.266666v68.266667z m0-102.4h-68.266666v-68.266667h68.266666v68.266667z m102.4 0h-68.266666v-68.266667h68.266666v68.266667z"  horiz-adv-x="1024" />

    
    <glyph glyph-name="beixuanzhanzhikushangbao" unicode="&#59090;" d="M512 896c282.760533 0 512-229.239467 512-512 0-282.760533-229.239467-512-512-512-282.760533 0-512 229.239467-512 512C0 666.760533 229.239467 896 512 896zM648.533333 145.066667h-273.066666a68.266667 68.266667 0 0 0-68.266667 68.266666V554.666667a68.266667 68.266667 0 0 0 68.266667 68.266666h273.066666a68.266667 68.266667 0 0 0 68.266667-68.266666v-341.333334a68.266667 68.266667 0 0 0-68.266667-68.266666z m-136.533333 409.6l-102.4-102.4h68.266667v-102.4h68.266666v102.4h68.266667l-102.4 102.4z m136.533333-238.933334h-273.066666v-34.133333h273.066666v34.133333z m0-68.266666h-273.066666v-34.133334h273.066666v34.133334z"  horiz-adv-x="1024" />

    
    <glyph glyph-name="beixuanzhanzhikushangbaoliang" unicode="&#59089;" d="M512 896c282.760533 0 512-229.239467 512-512 0-282.760533-229.239467-512-512-512-282.760533 0-512 229.239467-512 512C0 666.760533 229.239467 896 512 896zM648.533333 145.066667h-273.066666a68.266667 68.266667 0 0 0-68.266667 68.266666V554.666667a68.266667 68.266667 0 0 0 68.266667 68.266666h273.066666a68.266667 68.266667 0 0 0 68.266667-68.266666v-341.333334a68.266667 68.266667 0 0 0-68.266667-68.266666z m-136.533333 409.6l-102.4-102.4h68.266667v-102.4h68.266666v102.4h68.266667l-102.4 102.4z m136.533333-238.933334h-273.066666v-34.133333h273.066666v34.133333z m0-68.266666h-273.066666v-34.133334h273.066666v34.133334z"  horiz-adv-x="1024" />

    
    <glyph glyph-name="faqirenwu" unicode="&#59088;" d="M512 896c282.760533 0 512-229.239467 512-512 0-282.760533-229.239467-512-512-512-282.760533 0-512 229.239467-512 512C0 666.760533 229.239467 896 512 896zM716.8 179.2v-68.266667h-34.133333v68.266667h-68.266667v34.133333h68.266667v68.266667h34.133333v-68.266667h68.266667v-34.133333h-68.266667z m-136.533333 17.066667c0-18.397867 4.5056-35.6352 11.946666-51.2H375.466667a68.266667 68.266667 0 0 0-68.266667 68.266666V554.666667a68.266667 68.266667 0 0 0 68.266667 68.266666h273.066666a68.266667 68.266667 0 0 0 68.266667-68.266666v-240.64c-5.632 0.785067-11.229867 1.706667-17.066667 1.706666a119.466667 119.466667 0 0 1-119.466666-119.466666zM375.466667 281.6h136.533333v34.133333h-136.533333v-34.133333z m273.066666 238.933333h-273.066666v-34.133333h273.066666v34.133333z m0-102.4h-273.066666v-34.133333h273.066666v34.133333z"  horiz-adv-x="1024" />

    
    <glyph glyph-name="faqirenwuliang" unicode="&#59087;" d="M512 896c282.760533 0 512-229.239467 512-512 0-282.760533-229.239467-512-512-512-282.760533 0-512 229.239467-512 512C0 666.760533 229.239467 896 512 896zM716.8 179.2v-68.266667h-34.133333v68.266667h-68.266667v34.133333h68.266667v68.266667h34.133333v-68.266667h68.266667v-34.133333h-68.266667z m-136.533333 17.066667c0-18.397867 4.5056-35.6352 11.946666-51.2H375.466667a68.266667 68.266667 0 0 0-68.266667 68.266666V554.666667a68.266667 68.266667 0 0 0 68.266667 68.266666h273.066666a68.266667 68.266667 0 0 0 68.266667-68.266666v-240.64c-5.632 0.785067-11.229867 1.706667-17.066667 1.706666a119.466667 119.466667 0 0 1-119.466666-119.466666zM375.466667 281.6h136.533333v34.133333h-136.533333v-34.133333z m273.066666 238.933333h-273.066666v-34.133333h273.066666v34.133333z m0-102.4h-273.066666v-34.133333h273.066666v34.133333z"  horiz-adv-x="1024" />

    
    <glyph glyph-name="yichu" unicode="&#59086;" d="M1194.666667 128H597.333333v-256L0 384l597.333333 512v-256h597.333334a85.333333 85.333333 0 0 0 85.333333-85.333333v-341.333334a85.333333 85.333333 0 0 0-85.333333-85.333333z"  horiz-adv-x="1280" />

    
    <glyph glyph-name="tianjia" unicode="&#59085;" d="M1280 384l-597.333333-512V128H85.333333a85.333333 85.333333 0 0 0-85.333333 85.333333V554.666667a85.333333 85.333333 0 0 0 85.333333 85.333333h597.333334V896l597.333333-512z"  horiz-adv-x="1280" />

    
    <glyph glyph-name="xinzeng" unicode="&#59084;" d="M512-128A512 512 0 1 0 512 896a512 512 0 0 0 0-1024zM512 810.666667a426.666667 426.666667 0 1 1 0-853.333334A426.666667 426.666667 0 0 1 512 810.666667z m85.333333-682.666667H426.666667V298.666667H256V469.333333h170.666667V640h170.666666v-170.666667h170.666667v-170.666666H597.333333v-170.666667z"  horiz-adv-x="1024" />

    
    <glyph glyph-name="jingzhunguihua" unicode="&#59083;" d="M512-109.379037c-19.977196 0-39.507559 1.675627-58.833123 4.040122A37.254772 37.254772 0 1 0 418.909616-53.524807c19.288328 0 34.983366-14.726899 36.863792-33.531156 18.469132-2.196933 37.161681-3.704997 56.226592-3.704997 267.336966 0 484.069999 216.733033 484.069999 484.069998a485.187083 485.187083 0 0 1-9.160094 93.090385h18.822876c5.659895-30.198521 8.955295-61.234855 8.955295-93.090385 0-277.632762-225.055313-502.688076-502.688076-502.688075z m446.833845 670.250767a37.236154 37.236154 0 0 0-37.236154 37.236154c0 11.654916 5.455097 21.913476 13.833231 28.746311C853.008696 776.078081 694.531626 877.379037 512 877.379037 357.116218 877.379037 219.584485 804.377558 130.962439 691.198269H107.745697C199.290781 815.213279 346.019845 895.997114 512 895.997114c190.034711 0 355.00949-105.694822 440.429227-261.304709 2.085225 0.372362 4.207685 0.651633 6.404618 0.651633a37.236154 37.236154 0 0 0 0-74.472308z m-906.942379-18.078152A481.742739 481.742739 0 0 1 27.930001 393.309038c0-194.037597 114.445319-360.948656 279.271153-438.139203v-20.647447C131.744398 12.978964 9.311924 188.696374 9.311924 393.309038c0 52.912574 8.731878 103.646834 23.980083 151.495292A37.124445 37.124445 0 0 0 9.311924 579.489807a37.236154 37.236154 0 1 0 74.472308 0 37.143063 37.143063 0 0 0-31.892766-36.696229zM512 114.037885c-143.95497 0-260.653076 116.698106-260.653076 260.653077 0 143.694317 116.288508 260.187624 259.871117 260.61584l0.204799 0.037236 0.111708-0.018618L512 635.344038v-0.111709a13.926322 13.926322 0 0 0-0.57716-27.815406c-0.930904 0-1.731481 0.353743-2.606531 0.521306-127.329028-1.414974-230.11943-104.931481-230.11943-232.595635 0-128.520585 104.186758-232.725961 232.725961-232.725961 128.297168 0 232.334981 103.851633 232.688724 232.074329h0.614397a13.963558 13.963558 0 0 0 27.927115 0c0-143.95497-116.698106-260.653076-260.653076-260.653077z m150.676096 402.280787l-0.130326-0.111708 0.204798-0.074472 0.055855-0.204799 0.148944 0.148944 81.472705-24.855132-23.533249-23.533249-81.919539 24.408298-7.409994-7.149341 7.149341 7.409994-27.480281 78.475194 23.849756 23.849757 27.59199-78.363486zM614.399423 374.690962a13.963558 13.963558 0 1 0 26.71694-5.604042c-3.239545-69.091683-59.801263-124.257045-129.693523-124.257045a130.326538 130.326538 0 1 0 0 260.653077c0.186181 0 0.372362-0.055854 0.57716-0.055855v-0.521306a13.926322 13.926322 0 0 0 13.386397-13.851849c0-7.503085-5.957785-13.516724-13.386397-13.851849v-0.279271c-0.204799 0-0.39098 0.055854-0.57716 0.055854a102.399423 102.399423 0 1 1 102.399422-102.399423L613.803644 374.690962h0.595779z m-32.972614 166.333898l15.266823 15.266823 27.59199-78.363485-0.130327-0.130327 0.186181-0.055854 0.074472-0.204799 0.130327 0.148945 81.491322-24.855133-18.227097-18.208479c-4.8407-4.859318-14.671045-6.832834-21.950713-4.431102l-46.582428 15.341295-75.347357-75.328739a19.027675 19.027675 0 1 0-26.921739 26.940357l75.328739 75.328739-15.341296 46.582429c-2.401732 7.298286-0.409598 17.128631 4.431103 21.96933z m130.382392 6.441855l53.63868-17.668555c7.298286-2.401732 9.271802-8.266426 4.431102-13.125744l-10.593686-10.575068-81.919538 24.389681-7.409995-7.149342 7.149342 7.409995-27.461664 78.493812 13.85185 13.851849c4.8407 4.8407 10.705394 2.867184 13.107126-4.431102l17.668555-53.657298c2.401732-7.279668 0.409598-17.128631-4.431103-21.96933 4.8407 4.8407 14.671045 6.832834 21.969331 4.431102z"  horiz-adv-x="1024" />

    
    <glyph glyph-name="Gluce-jizhan-" unicode="&#59082;" d="M804.15 228.21c-5.56 0-11.18 1.55-16.2 4.79-13.86 8.96-17.82 27.46-8.86 41.31 33.6 51.96 51.36 112.29 51.36 174.47 0 177.41-144.34 321.75-321.75 321.75S186.95 626.21 186.95 448.8c0-61.54 17.42-121.34 50.37-172.93 8.88-13.91 4.81-32.38-9.1-41.26-13.91-8.88-32.38-4.81-41.26 9.1-39.1 61.22-59.77 132.14-59.77 205.1 0 101.9 39.68 197.71 111.74 269.77S406.79 830.3 508.7 830.3s197.71-39.68 269.77-111.74c72.06-72.06 111.74-167.86 111.74-269.77 0-73.73-21.07-145.28-60.94-206.92-5.72-8.84-15.32-13.66-25.12-13.66zM734.52 397.8c-16.5 0-29.88 13.38-29.88 29.88 0 108.04-87.9 195.94-195.94 195.94s-195.94-87.9-195.94-195.94c0-16.5-13.38-29.88-29.88-29.88S253 411.18 253 427.68c0 68.3 26.6 132.51 74.89 180.81s112.51 74.89 180.81 74.89 132.51-26.6 180.81-74.89c48.29-48.3 74.89-112.51 74.89-180.81 0-16.5-13.38-29.88-29.88-29.88zM891.89-7.61c-0.86 2.03-1.92 4.03-3.21 5.95L680.76 308.49c-0.8 1.19-1.67 2.32-2.59 3.4L576.38 464c-32.1 47.96-108.92 47.62-140.5-0.62L168.95 55.62c-40.62-62.05 30.12-134.97 103.07-106.25L699.25 117.6c3.53 1.39 6.87 3 10.06 4.75l53.3-79.51-61.66 19.04c-21.3 6.58-44.66-3.86-51.9-23.19-7.25-19.33 4.25-40.54 25.55-47.11l168.14-51.93c21.3-6.58 44.66 3.86 51.9 23.19 3.8 10.14 2.45 20.77-2.75 29.55zM543.5 124.43c-11.24-16.3-33.76-20.44-50.06-9.2l-116.47 80.31c-16.3 11.24-20.44 33.76-9.2 50.06 11.24 16.3 33.76 20.44 50.06 9.2l116.47-80.31c16.29-11.24 20.43-33.77 9.2-50.06z"  horiz-adv-x="1024" />

    
    <glyph glyph-name="jingzhunguihua-GIS-shangbao-" unicode="&#59078;" d="M715.07 592.2H855.8c-1.33 1.6-2.73 3.16-4.22 4.65l-199.4 199.4c-2.51 2.51-5.2 4.79-8.04 6.85v-139.97c0-39.18 31.76-70.93 70.93-70.93zM864.17 542.2H721.23c-34.22 0-67.23 13.8-90.46 38.92-20.71 22.4-32.05 51.33-32.05 82.01V815.61a0.39 0.39 0 0 1-0.39 0.39H275.3c-70.26 0-127.21-56.95-127.21-127.21v-609.58c0-70.26 56.95-127.21 127.21-127.21h473.4c70.26 0 127.21 56.95 127.21 127.21v462.6a0.39 0.39 0 0 1-0.39 0.39h-11.35zM583.78 319.53v-230.97c0-0.21-0.17-0.39-0.39-0.39H440.6a0.39 0.39 0 0 0-0.39 0.39V320.12c0 0.21-0.17 0.39-0.38 0.39l-128.49 0.52c-0.34 0-0.51 0.4-0.28 0.65L511.11 540.4c0.15 0.17 0.42 0.17 0.57 0l201.85-220.36c0.23-0.25 0.05-0.65-0.29-0.65l-129.07 0.53a0.39 0.39 0 0 1-0.39-0.39z"  horiz-adv-x="1024" />

    
    <glyph glyph-name="jingzhunguihua-biaodan-yitian-" unicode="&#59079;" d="M277 588.48h176.28v-50H277zM277 412.07h352.57v-50H277zM629.57 235.66h-33.43l33.43-27.92zM277 185.66h192.4l18.99 22.73 22.77 27.27H277zM862.77 349.83L676.8 116.16l-83.21 69.5h0.02l-42.47 35.46-0.01 0.01-32.06-38.38 164.97-137.78 0.01 0.01 0.01-0.01 12.23 15.37h-0.02l26.46 33.24v-0.02l50 62.83v0.02L901.89 318.7zM707.62 10.34h65.11v81.81l-57.38-72.09zM772.91 633.22L638.8 757.57v0.07h-0.08l-0.03 0.02-0.03-0.02H122.11v-747.3h541.01l-4.7 3.93-55.16 46.07H172.11v647.3H588.8v-124.33h133.93v-345.22l50 62.82V633.03l0.18 0.19zM638.8 696.8l66.85-63.49H638.8V696.8z"  horiz-adv-x="1024" />

    
    <glyph glyph-name="jingzhunguihua-GIS-zhanzhizhuangtai-" unicode="&#59080;" d="M302.2 826.46h79.2v-121.4h-79.2zM643.6 826.46h78.2v-121.4h-78.2zM768 705.06h-46.2v-128.4h-78.2v128.4H381.4v-128.4h-79.2v128.4H256c-84.83 0-153.6-68.77-153.6-153.6V91.23c0-82.32 67.36-149.68 149.68-149.68h519.84c82.32 0 149.68 67.36 149.68 149.68V551.46c0 84.83-68.77 153.6-153.6 153.6zM284.27 238.88c-30.56 0-55.33 24.77-55.33 55.33s24.77 55.33 55.33 55.33 55.33-24.77 55.33-55.33-24.77-55.33-55.33-55.33z m227.73 0c-30.56 0-55.33 24.77-55.33 55.33s24.77 55.33 55.33 55.33 55.33-24.77 55.33-55.33-24.77-55.33-55.33-55.33z m227.73 0c-30.56 0-55.33 24.77-55.33 55.33s24.77 55.33 55.33 55.33 55.33-24.77 55.33-55.33-24.77-55.33-55.33-55.33z"  horiz-adv-x="1024" />

    
    <glyph glyph-name="luce-shujuqiehuan" unicode="&#59077;" d="M145.54 502.11c0 25.11 20.54 45.65 45.65 45.65H832.8c25.11 0 45.65-20.54 45.65-45.65s-20.54-45.65-45.65-45.65H191.2c-25.11 0-45.66 20.54-45.66 45.65zM158.86 469.78c-17.75 17.75-17.75 46.81 0 64.56l148.49 148.49c17.75 17.75 46.81 17.75 64.56 0s17.75-46.81 0-64.56L223.42 469.78c-17.75-17.76-46.81-17.76-64.56 0zM878.46 265.89c0-25.11-20.54-45.65-45.65-45.65H191.2c-25.11 0-45.65 20.54-45.65 45.65s20.54 45.65 45.65 45.65h641.6c25.11 0 45.66-20.54 45.66-45.65zM865.14 298.22c17.75-17.75 17.75-46.81 0-64.56L716.65 85.17c-17.75-17.75-46.81-17.75-64.56 0s-17.75 46.81 0 64.56l148.49 148.49c17.75 17.76 46.81 17.76 64.56 0z"  horiz-adv-x="1024" />

    
    <glyph glyph-name="zizhutubiaozhizuo_fuzhi-1" unicode="&#59076;" d="M618.3 698.82m-169.26 0a169.26 169.26 0 1 1 338.52 0 169.26 169.26 0 1 1-338.52 0ZM938.37 218.59c-21.72 122.39-94.18 230.63-190.6 278.57-16.62 8.27-35.81 7.96-52.32-0.57-23.49-12.15-49.49-18.9-76.85-18.9-26.8 0-52.29 6.48-75.41 18.16-16.56 8.37-35.71 8.57-52.26 0.17-95.49-48.49-167.08-156.44-188.46-278.22-6.92-39.42 19.21-76.24 53.73-76.24h528.56c34.82 0.01 60.66 37.31 53.61 77.03zM907.41-94.55h-672.9c-13.81 0-25 11.19-25 25s11.19 25 25 25h672.9c17.25 0 31.29 14.04 31.29 31.29s-14.04 31.29-31.29 31.29H120.59c-44.82 0-81.29 36.47-81.29 81.29s36.47 81.29 81.29 81.29h60.93c13.81 0 25-11.19 25-25s-11.19-25-25-25h-60.93c-17.25 0-31.29-14.04-31.29-31.29s14.04-31.29 31.29-31.29h786.82c44.82 0 81.29-36.47 81.29-81.29s-36.46-81.29-81.29-81.29zM595.45 113.93H646c1.63 0 2.32-2.37 1.03-3.49l-24.86-21.59c-0.85-0.74-2.04-0.74-2.89 0l-24.86 21.59c-1.3 1.12-0.6 3.49 1.03 3.49z"  horiz-adv-x="1024" />

    
    <glyph glyph-name="Gdapingdiqushaixuan-" unicode="&#59075;" d="M894.27 329.05c-5.71 6.5-13.95 11.24-25.48 13.28-33.57 5.92-64.34 16.09-97.52 20.72C693.99 220.55 576.64 122.81 512 122.81c-57.47 0-156.6 83.99-232.2 203.35-4.54 2.19-9.12 4.29-13.75 6.22-10.84 4.52-21.69 7.23-32.32 6.31-7.2-0.07-14.39-0.82-21.56-2.44-7.04-2.57-13.69-6.45-19.59-11.27-11.8-9.63-20.59-22.91-23.53-37.53 0 0-49.34-245.57-49.37-245.71-6.46-32.15 26.62-53.53 45.92-59.79 51.25-16.62 106.9-38.67 163.57-37.18 74.31 1.96 140.55 40.61 210.72 60.24 22.27 6.23 45 9.71 67.88 12.86 32.66 4.5 66.02 5.3 98.7 0.64 30.42-4.34 56.43-18.56 85.63-25 6.91-1.52 13.9-1.25 20.65 0.66 6.76 1.91 13.28 5.42 19.13 10.08 5.89 4.77 11.04 10.5 15.08 16.85 4.04 6.35 6.97 13.33 8.44 20.63 0 0 19.28 95.98 33.75 167.97 2.89 14.4 5.59 27.83 7.91 39.35 8.62 25.23 14.33 60.51-2.79 80zM512 825.25c-138.43 0-250.65-112.22-250.65-250.65 0-192.46 174.39-390.26 250.65-390.26S762.65 366.28 762.65 574.6c0 138.43-112.22 250.65-250.65 250.65z m0-359.55c-57.79 0-104.65 46.85-104.65 104.65S454.21 674.99 512 674.99c57.79 0 104.65-46.85 104.65-104.65S569.79 465.7 512 465.7z"  horiz-adv-x="1024" />

    
    <glyph glyph-name="Gluce-xunjianshaixuan--copy" unicode="&#59081;" d="M762.54 835.07H189.67c-51.87 0-93.91-42.05-93.91-93.91v-691.83c0-51.87 42.05-93.91 93.91-93.91h426.06c-25.48 34.45-40.55 77.05-40.55 123.19 0 114.54 92.85 207.39 207.39 207.39 26.03 0 50.92-4.81 73.88-13.56V741.15c0 51.87-42.05 93.92-93.91 93.92zM486.19 123.67999999999995H213.15v64.17h273.04v-64.17z m40 159.65H213.15V347.5h313.04v-64.17z m212.87 159.65H213.15v64.17h525.91v-64.17z m0 159.65H213.15V666.8h525.91v-64.17zM751.94 6.029999999999973c-55.16 0-100.03 44.87-100.03 100.03 0 55.16 44.87 100.03 100.03 100.03 55.16 0 100.03-44.87 100.03-100.03 0-55.16-44.88-100.03-100.03-100.03z m0 156.05c-30.89 0-56.03-25.13-56.03-56.03 0-30.89 25.13-56.03 56.03-56.03 30.89 0 56.03 25.13 56.03 56.03 0 30.9-25.14 56.03-56.03 56.03zM883.85-59.450000000000045l-78.21 78.21c-10.16 10.16-10.16 26.62 0 36.78s26.62 10.16 36.78 0l78.21-78.21c10.16-10.16 10.16-26.62 0-36.78s-26.62-10.16-36.78 0z"  horiz-adv-x="1024" />

    
    <glyph glyph-name="Gluce-xunjianshaixuan-" unicode="&#59073;" d="M762.54 835.07H189.67c-51.87 0-93.91-42.05-93.91-93.91v-691.83c0-51.87 42.05-93.91 93.91-93.91h426.06c-25.48 34.45-40.55 77.05-40.55 123.19 0 114.54 92.85 207.39 207.39 207.39 26.03 0 50.92-4.81 73.88-13.56V741.15c0 51.87-42.05 93.92-93.91 93.92zM486.19 123.68H213.15v64.17h273.04v-64.17z m40 159.65H213.15V347.5h313.04v-64.17z m212.87 159.65H213.15v64.17h525.91v-64.17z m0 159.65H213.15V666.8h525.91v-64.17zM751.94 6.03c-55.16 0-100.03 44.87-100.03 100.03 0 55.16 44.87 100.03 100.03 100.03 55.16 0 100.03-44.87 100.03-100.03 0-55.16-44.88-100.03-100.03-100.03z m0 156.05c-30.89 0-56.03-25.13-56.03-56.03 0-30.89 25.13-56.03 56.03-56.03 30.89 0 56.03 25.13 56.03 56.03 0 30.9-25.14 56.03-56.03 56.03zM883.85-59.45l-78.21 78.21c-10.16 10.16-10.16 26.62 0 36.78s26.62 10.16 36.78 0l78.21-78.21c10.16-10.16 10.16-26.62 0-36.78s-26.62-10.16-36.78 0z"  horiz-adv-x="1024" />

    
    <glyph glyph-name="Gluce-leibieshaixuan-" unicode="&#59074;" d="M817.58-37.23H206.42c-63.77 0-115.65 51.88-115.65 115.65V689.58c0 63.77 51.88 115.65 115.65 115.65h611.16c63.77 0 115.65-51.88 115.65-115.65v-611.16c0-63.77-51.88-115.65-115.65-115.65zM206.42 755.23c-36.2 0-65.65-29.45-65.65-65.65v-611.16c0-36.2 29.45-65.65 65.65-65.65h611.16c36.2 0 65.65 29.45 65.65 65.65V689.58c0 36.2-29.45 65.65-65.65 65.65H206.42zM745.66 66.34H278.34c-46.32 0-84 37.68-84 84V617.66c0 46.32 37.68 84 84 84h467.32c46.32 0 84-37.68 84-84v-467.32c0-46.32-37.68-84-84-84zM278.34 641.66c-13.23 0-24-10.77-24-24v-467.32c0-13.23 10.77-24 24-24h467.32c13.23 0 24 10.77 24 24V617.66c0 13.23-10.77 24-24 24H278.34zM191.578 161.15l543.265 543.265 97.558-97.558-543.265-543.265zM823.29 308.35L584.53 69.59l-121.71 57.39 309.32 309.33zM586.36 648.09L249.11 310.84l-53.85 139.82 248.87 248.87z"  horiz-adv-x="1024" />

    
    <glyph glyph-name="luceshijianzhoujiantou" unicode="&#59069;" d="M707.965333 41.92807L666.453137 0.415874 251.272461 415.596549 666.453137 830.777225l41.512196-41.512196L334.296853 415.596549l373.66848-373.668479z"  horiz-adv-x="1024" />

    
    <glyph glyph-name="luce" unicode="&#59070;" d="M1016.688274-61.952c-12.288-40.667429-18.944-66.048-65.536-66.048h-219.428571L658.580846 896h146.285714c14.336-1.243429-23.917714-2.56-14.189714-5.046857 10.313143-2.56 19.017143-7.68 26.697143-15.286857 8.192-8.265143 15.36-20.918857 22.016-36.864 7.68-17.115429 14.336-38.107429 22.016-66.633143 5.632-19.090286 11.776-45.129143 17.92-78.189714 7.168-32.987429 14.848-69.851429 24.137142-111.177143 9.216-41.252571 18.432-83.821714 27.648-129.536 10.24-45.129143 19.456-88.941714 28.672-131.510857 9.728-43.227429 17.92-82.578286 26.697143-119.442286 9.216-36.205714 15.872-67.291429 22.016-91.501714 17.92-74.898286 20.48-132.096 8.192-172.763429zM436.299703-128L439.152274 237.714286h146.285715l-4.681143-365.714286H436.299703zM439.152274 603.428571h146.285715v-292.571428H439.152274V603.428571z m0 292.571429h146.285715v-219.428571H439.152274V896zM73.437989-128c-46.665143 0-53.248 25.380571-65.536 66.048-12.288 40.667429-9.728 97.865143 8.192 172.763429 6.144 24.210286 12.8 55.296 22.016 91.501714 8.704 36.864 16.896 76.214857 26.697142 119.442286 9.216 42.569143 18.432 86.381714 28.672 131.510857 9.216 45.714286 18.432 88.283429 27.648 129.536 9.216 41.325714 16.896 78.189714 24.064 111.177143 6.144 33.060571 12.361143 59.099429 17.993143 78.189714 7.68 28.525714 14.336 49.517714 22.016 66.633143 6.656 15.945143 13.824 28.598857 22.016 36.864a56.612571 56.612571 0 0 0 26.624 15.286857C243.568274 893.44 205.387703 894.756571 219.723703 896h146.285714L292.86656-128H73.437989z"  horiz-adv-x="1024" />

    
    <glyph glyph-name="luceshijianzhoujiantou-copy" unicode="&#59071;" d="M316.034667 726.0719300000001L357.546863 767.584126 772.727539 352.403451 357.546863-62.777225000000044l-41.512196 41.512196L689.703147 352.403451l-373.66848 373.668479z"  horiz-adv-x="1024" />

    
    <glyph glyph-name="chengjianqu" unicode="&#59067;" d="M0-128v128h128V896h448v-256h320v-640h128v-128H0zM512 768H192v-64h320V768z m0-256H192v-64h320V512z m0-256H192v-64h320v64z m320 192h-192v-64h192V448z m0-192h-192v-64h192v64z"  horiz-adv-x="1024" />

    
    <glyph glyph-name="duoweiduzhibiaotongji" unicode="&#59068;" d="M950.857143 384H512V896a512 512 0 0 0 512-512h-73.142857zM585.142857 815.469714V457.142857h359.058286A438.198857 438.198857 0 0 1 585.142857 815.469714zM512-54.857143c217.307429 0 396.507429 158.354286 431.469714 365.714286h73.142857c-35.766857-247.808-246.930286-438.857143-504.612571-438.857143a512 512 0 0 0-512 512C0 641.682286 191.049143 852.845714 438.857143 888.612571v-73.142857C231.497143 780.507429 73.142857 601.307429 73.142857 384a438.857143 438.857143 0 0 1 438.857143-438.857143z"  horiz-adv-x="1024" />

    
    <glyph glyph-name="zhizuo_fuzhi-" unicode="&#59065;" d="M511.521 470.851l268.946 268.946 87.32-87.32L598.84 383.532zM959.91 831.91l-33.29-266.85L693.06 798.62zM512.479 297.142L243.533 28.196l-87.32 87.32L425.16 384.46zM64.09-63.91l33.29 266.85 233.56-233.56z"  horiz-adv-x="1024" />

    
    <glyph glyph-name="zizhutubiaozhizuo_fuzhi-" unicode="&#59066;" d="M986.468 771.147L717.522 502.2l-87.32 87.32L899.148 858.467zM538.08 410.08l33.29 266.85 233.56-233.57zM37.533-3.133l268.945 268.946 87.32-87.32-268.946-268.946zM485.92 357.92l-33.29-266.85-233.56 233.56z"  horiz-adv-x="1024" />

    
    <glyph glyph-name="zuocequyuzhankai" unicode="&#59063;" d="M733.895597 410.947368L307.603627-15.344602 204.862957 87.396069l322.690103 322.776223L204.08788 733.723591 307.603627 837.239338l323.551299-323.551299L733.895597 410.947368z"  horiz-adv-x="1024" />

    
    <glyph glyph-name="zuocequyuzhankai-copy" unicode="&#59064;" d="M290.104403 357.052632L716.396373 783.344602 819.137043 680.603931l-322.690103-322.776223L819.91212 34.276408999999944 716.396373-69.23933799999998l-323.551299 323.551299L290.104403 357.052632z"  horiz-adv-x="1024" />

    
    <glyph glyph-name="yichangtip" unicode="&#59062;" d="M512 896a512 512 0 1 0 0-1024 512 512 0 0 0 0 1024zM512 265.846154a39.384615 39.384615 0 0 0-39.384615 39.384615v315.076923a39.384615 39.384615 0 0 0 78.76923 0v-315.076923a39.384615 39.384615 0 0 0-39.384615-39.384615z m0-78.769231a39.384615 39.384615 0 1 0 0-78.769231 39.384615 39.384615 0 0 0 0 78.769231z"  horiz-adv-x="1024" />

    
    <glyph glyph-name="wangluofenxidaohang" unicode="&#59058;" d="M1061.125167 98.359888l-52.554992-112.511194c7.358552-9.726086 11.922987-21.862365 11.922987-35.235733C1020.493162-80.975489 996.007314-106.570453 965.783928-106.570453c-30.202057 0-54.709234 25.594963-54.709235 57.183414 0 14.162546 5.118993 26.981357 13.309381 36.963393l-73.905457 133.776343a53.109549 53.109549 0 0 0-9.61944-1.00247c-2.388863 0-4.649752 0.426583-6.953298 0.725191l-74.907927-135.610648c7.187919-9.662099 11.624379-21.670402 11.624379-34.851809C770.622331-80.975489 746.136483-106.570453 715.913097-106.570453S661.203863-80.975489 661.203863-49.387039c0 31.567122 24.485848 57.162085 54.709234 57.162085 3.092725 0 6.078804-0.426583 9.022225-0.938482l74.140077 134.181596a58.121896 58.121896 0 0 0-12.925456 36.494152c0 31.588451 24.485848 57.183414 54.709234 57.183414 30.202057 0 54.709234-25.594963 54.709234-57.183414 0-12.968115-4.287156-24.784456-11.261784-34.382567l75.142547-136.015902c2.111584 0.25595 4.159182 0.661203 6.334754 0.661203 2.879433 0 5.652221-0.426583 8.403679-0.874494l51.083282 109.311823a34.958454 34.958454 0 0 0-3.881903 15.484953c0 19.153564 14.866408 34.681175 33.188136 34.681175 18.343057 0 33.209465-15.527611 33.209465-34.681175 0-16.743372-11.581721-30.074082-26.66142-33.33744zM956.868349 335.369249c0.597216 5.524246 1.450381 11.005834 1.834306 16.594068h-127.782855c-0.341266-5.9295-1.151773-11.773683-1.685002-17.660524-23.355404-4.94836-45.644351-12.626849-66.802855-22.374264 2.004939 13.245394 3.497978 26.576104 4.393802 40.034788h-222.889473v-159.98985h81.541287a317.889446 317.889446 0 0 1-31.012564-63.987409h-50.528723v-150.093132a469.560934 469.560934 0 0 1 32.974844 23.376734 317.590838 317.590838 0 0 1 31.567122-119.891075 515.461235 515.461235 0 0 0-96.535671-9.278174c-69.085072 0-136.186535 13.501343-199.278119 40.205422a510.832812 510.832812 0 0 0-162.677322 109.674418A509.936989 509.936989 0 0 0 0.00064 383.957022a509.851672 509.851672 0 0 0 149.986486 361.955441A509.851672 509.851672 0 0 0 511.942567 895.898949a509.936989 509.936989 0 0 0 361.976771-149.986486 510.555534 510.555534 0 0 0 109.781064-162.677322A508.486607 508.486607 0 0 0 1023.799178 383.957022c0-22.694201-2.004939-45.047136-4.884372-67.229438a316.524381 316.524381 0 0 1-62.046457 18.641665zM195.183565 67.176691a447.869202 447.869202 0 0 1 216.384087-119.891075 545.279367 545.279367 0 0 0-132.283302 141.092236 530.050364 530.050364 0 0 0-23.419392 39.608206H144.185601a452.412308 452.412308 0 0 1 50.997964-60.809367zM99.181123 209.570004c2.516838-5.908171 5.204309-11.795012 7.91311-17.596537h119.677783a543.892973 543.892973 0 0 0-33.891997 159.98985H65.097164a445.352364 445.352364 0 0 1 34.083959-142.393313z m0 348.774035a442.792868 442.792868 0 0 1-34.083959-142.393313h127.8895c3.19937 55.093159 14.589129 108.88524 33.891998 159.989851H107.094233c-2.7088-5.801525-5.396271-11.709696-7.91311-17.596538zM337.55555 796.718466a445.501668 445.501668 0 0 1-142.371985-96.002442 444.925781 444.925781 0 0 1-50.891319-60.788039h111.572712c7.507856 13.991913 15.719573 27.791864 24.507178 41.293208a544.063607 544.063607 0 0 0 131.088871 139.385905 442.98483 442.98483 0 0 1-73.905457-23.888632z m142.393313-6.697349a482.25177 482.25177 0 0 1-150.071802-150.093132h150.071802V790.021117z m0-214.08054h-183.985129a477.55936 477.55936 0 0 1-38.883015-159.989851h222.868144v159.989851z m0-223.97726H257.080719a476.791511 476.791511 0 0 1 38.797699-159.98985h184.070445v159.98985z m0-223.977259h-150.071802c1.087786-1.599685 2.090255-3.2207 3.092724-4.799056a480.417464 480.417464 0 0 1 146.979078-145.294076v150.093132z m63.987409 287.964668h222.889473a478.071259 478.071259 0 0 1-38.904344 159.989851h-183.985129v-159.989851z m0 223.977259h150.093131c-1.407723 2.090255-2.687471 4.20184-4.095194 6.292096a479.926894 479.926894 0 0 1-145.997937 143.801036v-150.093132z m284.786626 60.788039a449.106292 449.106292 0 0 1-142.393313 96.002442 452.817562 452.817562 0 0 1-73.884128 23.888632 545.812596 545.812596 0 0 0 155.57472-180.679113h111.700686a453.564082 453.564082 0 0 1-50.997965 60.788039z m96.087759-142.371985a403.376624 403.376624 0 0 1-7.89178 17.596538h-119.805758a543.530378 543.530378 0 0 0 33.913326-159.989851h127.782855a448.338443 448.338443 0 0 1-33.998643 142.393313z"  horiz-adv-x="1087" />

    
    <glyph glyph-name="yonghufenxidaohang" unicode="&#59061;" d="M1024.001387 43.434381c0-19.498634-15.359974-34.901275-33.813277-34.901275a34.346609 34.346609 0 0 0-34.303943 34.389276c0 133.97311-59.946567 261.268898-164.437059 345.450091-0.703999 0.554666-1.002665 1.365331-1.642664 1.962663-0.639999 0.618666-1.087998 1.322664-1.663998 1.983997a32.981278 32.981278 0 0 0-8.938651 22.463962c0 0.106666-0.064 0.170666-0.064 0.277333 0 0.746665 0.234666 1.471998 0.277333 2.218663a33.877277 33.877277 0 0 0 5.119991 15.871974c0.703999 1.130665 0.938665 2.410663 1.791997 3.455994 2.389329 2.965328 5.269325 5.269325 8.34132 7.253321 61.887897 42.751929 77.546537 127.487788 35.199941 189.86635-1.045332 1.535997-2.047997 3.071995-3.583994 5.119992a34.28261 34.28261 0 0 0 6.655989 47.74392c5.631991 4.607992 12.799979 6.677322 20.479966 6.677323 10.751982 0 21.013298-5.141325 27.157288-13.866644 61.269231-81.70653 52.309246-193.578344-16.021307-264.959558A512.703145 512.703145 0 0 0 1024.001387 43.434381zM654.402003 391.081802c136.767772-56.191906 233.343611-190.783682 233.343611-348.15942v-63.658561c0-59.029235-48.149253-107.263821-107.050488-107.263821H243.842687a106.794489 106.794489 0 0 0-107.071822 107.263821v59.029235c0 158.357069 96.618506 295.76484 234.36761 352.703412-78.293203 48.021253-130.709115 134.421109-130.367783 232.980945 0 150.378416 122.431796 272.554212 272.511546 272.042214 150.101083 0 272.02088-122.687796 271.487547-273.087545-0.319999-98.282503-52.479913-184.04236-130.367782-231.85028z m-449.492585-348.15942v-42.090597a60.629232 60.629232 0 0 1 60.437233-60.565232h493.823177a60.586566 60.586566 0 0 1 60.437233 60.565232v42.090597c-0.511999 169.898384-137.79177 307.455488-307.348821 307.967487-169.557051 0-307.348821-138.069103-307.348822-307.967487zM512.25824 829.80107c-113.194478 0-204.906325-91.882514-204.906326-205.311657 0-113.450478 91.711847-205.332991 204.906326-205.332992 113.215811 0 204.906325 91.882514 204.906325 205.332992-0.511999 113.429144-92.202513 204.799659-204.906325 205.311657zM238.616029 434.324396c1.365331-1.94133 2.239996-4.031993 3.178661-6.186656 0.853332-1.962663 1.81333-3.81866 2.303997-5.866657 0.469333-1.983997 0.426666-3.94666 0.533332-5.994657 0.128-2.453329 0.319999-4.821325-0.064-7.231988-0.256-1.642664-0.938665-3.157328-1.450664-4.778658a31.935947 31.935947 0 0 0-3.242661-7.679988c-0.298666-0.490666-0.319999-1.066665-0.639999-1.535997a37.759937 37.759937 0 0 0-5.397325-5.674657c-0.511999-0.447999-0.725332-1.087998-1.258664-1.514664a444.777925 444.777925 0 0 1-164.43706-345.450091c0-18.474636-15.381308-33.877277-33.813277-33.877277A34.346609 34.346609 0 0 0 0.003093 42.922382c-0.469333 140.799765 57.855904 274.772875 159.253068 370.943382-65.557224 68.394553-76.885205 176.234373-20.949298 257.834237 1.535997 2.581329 3.583994 5.141325 5.119991 7.189321a34.197276 34.197276 0 0 0 48.149253 5.653324c14.357309-11.306648 17.429304-31.82928 6.677323-46.719922-45.610591-60.053233-33.301278-145.770424 27.135954-191.466348 1.535997-1.023998 3.071995-2.559996 5.119992-3.583994 1.301331-0.917332 2.026663-2.239996 3.157328-3.285328 1.301331-1.194665 2.879995-1.94133 4.031993-3.391994 0.426666-0.533332 0.511999-1.215998 0.917332-1.770664z"  horiz-adv-x="1024" />

    
    <glyph glyph-name="zhuantifenxidaohang" unicode="&#59060;" d="M522.666667 65.493333L64-128V896h896v-1024l-437.333333 193.493333zM896 576V832H128v-853.333333l394.666667 169.024L896-21.333333V576zM397.205333 216.533333c-6.058667-2.944-12.544-4.48-19.242666-4.48-17.450667 0-34.005333 10.282667-42.325334 26.218667-4.928 7.765333-4.928 16.64-4.928 24.533333v0.64l15.509334 126.186667-87.488 93.418667-0.128 0.128c-16.682667 18.88-15.424 48.085333 2.730666 63.850666l0.533334 0.469334 0.597333 0.362666c5.696 3.754667 12.16 8.042667 21.013333 10.218667l0.234667 0.064 125.354667 25.514667 63.338666 110.186666c7.530667 14.656 22.976 23.701333 40.426667 23.701334 7.765333 0 15.296-1.877333 21.824-5.461334l0.362667-0.192 0.362666-0.234666c5.696-3.754667 12.821333-8.448 17.621334-17.813334l63.338666-110.186666 125.056-25.450667c12.181333-2.24 22.677333-9.173333 29.610667-19.648 6.784-10.218667 9.322667-22.506667 7.125333-34.56l-0.042666-0.362667-0.064-0.341333c-1.898667-7.594667-4.224-14.997333-11.456-22.293333l-87.253334-93.205334 15.424-125.696v-0.192a45.781333 45.781333 0 0 0-10.261333-33.386666 46.037333 46.037333 0 0 0-31.274667-16.533334l-0.490666-0.042666h-0.469334v0.042666c-7.594667 0-14.848 0-24.042666 4.544l-116.394667 52.565334-114.602667-52.565334z m135.68 105.365334l0.533334-0.192 104.469333-47.210667-13.717333 111.829333a42.453333 42.453333 0 0 0 11.690666 36.821334l77.994667 83.306666-111.466667 22.698667c-13.76 2.346667-25.408 11.178667-30.570666 23.232l-56.384 98.133333-56.810667-98.837333-0.064-0.128c-6.997333-11.52-18.517333-20.16-29.952-22.4L317.013333 506.453333l77.994667-83.306666c9.557333-9.536 13.888-23.232 11.690667-36.821334l-13.717334-111.701333 102.4 46.912 0.234667 0.128c5.568 2.282667 11.690667 3.413333 18.218667 3.413333 6.293333 0 12.693333-1.066667 19.050666-3.178666z"  horiz-adv-x="1024" />

    
    <glyph glyph-name="dapingyezhibiaoshaixuan" unicode="&#59054;" d="M576-64v128h448v-128H576z m0 384h448v-128H576V320z m0 256h448v-128H576V576zM448-128l-320 192V576L0 896h576L448 576v-704z"  horiz-adv-x="1024" />

    
    <glyph glyph-name="dapingyeriqi" unicode="&#59055;" d="M832-128H192a192 192 0 0 0-192 192V448h1024v-384a192 192 0 0 0-192-192zM320 320H192v-64h128V320z m0-192H192v-64h128v64z m256 192H448v-64h128V320z m0-192H448v-64h128v64z m256 192h-128v-64h128V320z m0-192h-128v-64h128v64zM0 576a192 192 0 0 0 192 192h64v-128h64V768h384v-128h64V768h64a192 192 0 0 0 192-192v-64H0V576z m256 320h64v-128H256V896z m448 0h64v-128h-64V896z"  horiz-adv-x="1024" />

    
    <glyph glyph-name="zhumoxing" unicode="&#59050;" d="M512 896c282.760533 0 512-229.239467 512-512 0-282.760533-229.239467-512-512-512-282.760533 0-512 229.239467-512 512C0 666.760533 229.239467 896 512 896zM682.666667 145.066667h-68.266667v102.4h136.533333v-34.133334a68.266667 68.266667 0 0 0-68.266666-68.266666z m-68.266667 273.066666h136.533333v-102.4h-136.533333v102.4zM273.066667 554.666667a68.266667 68.266667 0 0 0 68.266666 68.266666h341.333334a68.266667 68.266667 0 0 0 68.266666-68.266666v-68.266667H273.066667v68.266667z m136.533333-238.933334H273.066667v102.4h136.533333v-102.4z m0-170.666666h-68.266667a68.266667 68.266667 0 0 0-68.266666 68.266666v34.133334h136.533333v-102.4z m170.666667 170.666666h-136.533334v102.4h136.533334v-102.4z m0-170.666666h-136.533334v102.4h136.533334v-102.4z"  horiz-adv-x="1024" />

    
    <glyph glyph-name="guanlianmoxing" unicode="&#59051;" d="M512 896c282.760533 0 512-229.239467 512-512 0-282.760533-229.239467-512-512-512-282.760533 0-512 229.239467-512 512C0 666.760533 229.239467 896 512 896zM716.8 145.066667h-273.066667a34.133333 34.133333 0 0 0-34.133333 34.133333v102.4H307.2a34.133333 34.133333 0 0 0-34.133333 34.133333V588.8a34.133333 34.133333 0 0 0 34.133333 34.133333h273.066667a34.133333 34.133333 0 0 0 34.133333-34.133333v-102.4h102.4a34.133333 34.133333 0 0 0 34.133333-34.133333v-273.066667a34.133333 34.133333 0 0 0-34.133333-34.133333z m-170.666667 375.466666a34.133333 34.133333 0 0 1-34.133333 34.133334h-136.533333a34.133333 34.133333 0 0 1-34.133334-34.133334v-136.533333a34.133333 34.133333 0 0 1 34.133334-34.133333h34.133333v102.4a34.133333 34.133333 0 0 0 34.133333 34.133333h102.4v34.133333z m0-102.4h-68.266666v-68.266666h68.266666v68.266666z m136.533334-136.533333v102.4a34.133333 34.133333 0 0 1-34.133334 34.133333h-34.133333v-136.533333h-136.533333v-68.266667h170.666666a34.133333 34.133333 0 0 1 34.133334 34.133334v34.133333z"  horiz-adv-x="1024" />

    
    <glyph glyph-name="guanlianmoxingmulu" unicode="&#59052;" d="M512 896a512 512 0 1 0 0-1024A512 512 0 0 0 512 896zM384 128v128H256V640h384v-128h128v-384H384z m192 448H320v-256h64V512h192V576z m0-128H448v-128h128V448z m128-192V448h-64v-192H448v-64h256v64z"  horiz-adv-x="1024" />

    
    <glyph glyph-name="zhumoxingtuli" unicode="&#59053;" d="M512 896a512 512 0 1 0 0-1024A512 512 0 0 0 512 896zM704 128h-64v128h128v-64a64 64 0 0 0-64-64z m-64 320h128v-128h-128V448zM256 576a64 64 0 0 0 64 64h384a64 64 0 0 0 64-64v-64H256V576z m128-256H256V448h128v-128z m0-192H320a64 64 0 0 0-64 64v64h128v-128z m192 192H448V448h128v-128z m0-192H448v128h128v-128z"  horiz-adv-x="1024" />

    
    <glyph glyph-name="sousuolanqingchu" unicode="&#59049;" d="M512-128a512 512 0 1 0 0 1024 512 512 0 0 0 0-1024z m263.261091 709.445818l-65.815273 65.908364L512 449.815273 314.554182 647.354182l-65.908364-65.908364L446.184727 384 248.645818 186.554182l65.908364-65.815273L512 318.184727l197.445818-197.445818 65.815273 65.815273L577.815273 384l197.445818 197.445818z"  horiz-adv-x="1024" />

    
    <glyph glyph-name="gengduoleixing" unicode="&#59048;" d="M2423.51062997 260.22354455000004a123.77645545 123.77645545 0 1 0-0.06188824 247.49102267A123.77645545 123.77645545 0 0 0 2423.51062997 260.22354455000004zM2052.18126363 260.22354455000004A123.77645545 123.77645545 0 1 0 2052.1193754 507.71456722 123.77645545 123.77645545 0 0 0 2052.18126363 260.22354455000004zM1680.85189728 260.22354455000004A123.77645545 123.77645545 0 1 0 1680.79000905 507.71456722 123.77645545 123.77645545 0 0 0 1680.85189728 260.22354455000004z"  horiz-adv-x="4096" />

    
    <glyph glyph-name="shujuzhiliangjiankongcebianlan" unicode="&#59047;" d="M866.99 547.56c-62.83 136.58-200.53 224.82-350.8 224.82-115.5 0-223.98-51.11-297.64-140.24l-13.1 10.83c76.9 93.04 190.16 146.41 310.74 146.41 78.56 0 154.69-22.62 220.17-65.41 63.8-41.7 114.31-100.24 146.08-169.31l-15.45-7.1zM338.31 24.799999999999955c-66.5 32.77-122.7 83.24-162.52 145.95-40.91 64.43-62.54 139.02-62.54 215.7 0 28.02 2.89 56.01 8.6 83.19a400.34 400.34 0 0 0 26.66 81.88l15.5-6.97a384.103 384.103 0 0 1-25.53-78.4c-5.47-26.04-8.24-52.85-8.24-79.7 0-148.14 82.6-280.87 215.57-346.4l-7.5-15.25zM516.19-16.49000000000001c-27.33 0-54.65 2.75-81.2 8.19l3.41 16.65c25.43-5.2 51.6-7.84 77.79-7.84 15.77 0 31.66 0.96 47.21 2.86 193.1 23.55 338.72 188.24 338.72 383.08 0 19.85-1.52 39.78-4.52 59.25l16.8 2.59c3.13-20.32 4.72-41.13 4.72-61.84 0-203.42-152.04-375.36-353.66-399.95a408.43 408.43 0 0 0-49.27-2.99zM156.05 532.78m-28.17 0a28.17 28.17 0 1 1 56.34 0 28.17 28.17 0 1 1-56.34 0ZM449.22-0.15999999999996817m-28.17 0a28.17 28.17 0 1 1 56.34 0 28.17 28.17 0 1 1-56.34 0ZM879.93 551.11m-28.17 0a28.17 28.17 0 1 1 56.34 0 28.17 28.17 0 1 1-56.34 0ZM426.35 202.88h198.39v-21.85H426.35zM716.4 232.5H319.58V567.27H716.4V232.5z m-376.82 20H696.4V547.27H339.58V252.5zM397 338.64c-1.25 0-2.51 0.28-3.71 0.86-4.22 2.05-5.98 7.14-3.93 11.36l61.04 125.61a8.514 8.514 0 0 0 7.08 4.77c3.05 0.2 5.96-1.24 7.65-3.78l70.59-106.42L566.68 432a8.514 8.514 0 0 0 6.3 4.56c2.72 0.41 5.46-0.51 7.37-2.48l78.65-81a8.499 8.499 0 0 0-0.18-12.02 8.499 8.499 0 0 0-12.02 0.18l-70.36 72.46-32.18-63.35a8.51 8.51 0 0 0-7.09-4.64 8.48 8.48 0 0 0-7.57 3.79l-70.43 106.17-54.54-112.23c-1.45-3.04-4.48-4.8-7.63-4.8z"  horiz-adv-x="1024" />

    
    <glyph glyph-name="xiahang" unicode="&#59045;" d="M2191.043032 310.614808V456.655119h292.080623v-146.040311h-292.080623z m-438.120936 146.040311h292.080624v-146.040311h-292.080624V456.655119zM1314.801161 456.655119h292.080624v-146.040311H1314.801161V456.655119zM618.334915-25.71603l-103.10446-102.374259L73.312472 310.614808H4.965606v67.908745L-0.145805 383.634964l5.111411 5.111411V456.655119h68.346866l29.500143 29.354103L515.230455 895.360216l103.10446-102.374259L279.521392 456.655119h893.766707v-146.040311h-893.766707l338.813523-336.330838z"  horiz-adv-x="2484" />

    
    <glyph glyph-name="shanghang" unicode="&#59046;" d="M1886.57291 441.822674V395.363618h-46.459056l-20.826474-20.726347L1536.127442 91.477333l-70.789984 70.789985L1698.433758 395.363618H1085.554698V495.490894h612.87906l-233.0963 233.0963 70.789984 70.890111L1840.113854 495.490894H1886.57291v-46.459056l3.604582-3.604582-3.604582-3.604582zM785.172869 495.490894h200.254553v-100.127276H785.172869V495.490894zM484.791039 495.490894h200.254553v-100.127276H484.791039V495.490894zM184.40921 495.490894h200.254553v-100.127276H184.40921V495.490894z"  horiz-adv-x="2467" />

    
    <glyph glyph-name="zhuantifenxi" unicode="&#59043;" d="M512-109.379037c-19.977196 0-39.507559 1.675627-58.833123 4.040122A37.254772 37.254772 0 1 0 418.909616-53.524807c19.288328 0 34.983366-14.726899 36.863792-33.531156 18.469132-2.196933 37.161681-3.704997 56.226592-3.704997 267.336966 0 484.069999 216.733033 484.069999 484.069998a485.187083 485.187083 0 0 1-9.160094 93.090385h18.822876c5.659895-30.198521 8.955295-61.234855 8.955295-93.090385 0-277.632762-225.055313-502.688076-502.688076-502.688075z m446.833845 670.250767a37.236154 37.236154 0 0 0-37.236154 37.236154c0 11.654916 5.455097 21.913476 13.833231 28.746311C853.008696 776.078081 694.531626 877.379037 512 877.379037 357.116218 877.379037 219.584485 804.377558 130.962439 691.198269H107.745697C199.290781 815.213279 346.019845 895.997114 512 895.997114c190.034711 0 355.00949-105.694822 440.429227-261.304709 2.085225 0.372362 4.207685 0.651633 6.404618 0.651633a37.236154 37.236154 0 1 0 0-74.472308z m-651.632691 74.472308h409.597692v-484.069999l-204.798846 91.470612L307.201154 151.274039V635.344038z m27.927116-149.521776v-289.157352l176.29457 77.339492 177.44889-77.93527V486.399423h-0.57716v121.0175l-353.278009-0.037237 0.111709-121.557424zM452.496626 486.399423l6.311528 1.303265 29.658597 52.074761a20.9081 20.9081 0 0 0 18.915966 11.208083c3.649143 0 7.16796-0.893668 10.239942-2.587913l0.167563-0.074472 0.167563-0.111709c2.662385-1.787335 5.995021-4.002887 8.247808-8.433989l29.658596-52.074761 6.311528-1.303265h126.118853l-125.132095-0.204799 51.274184-10.537832c5.697132-1.06123 10.612304-4.338012 13.870467-9.271802 3.165073-4.8407 4.35663-10.64954 3.332636-16.346671l-0.037236-0.167563-0.018618-0.167563c-0.893668-3.593289-1.973516-7.093487-5.362006-10.537831l-40.866679-44.05037 7.223814-59.428902v-0.09309c0.539924-5.71575-1.191557-11.338409-4.803464-15.788129a21.410788 21.410788 0 0 0-14.652427-7.800974l-0.223417-0.037236h-0.223416v0.037236c-3.556053 0-6.944543 0-11.245319 2.141079l-54.513729 24.836514-53.675916-24.836514a20.219231 20.219231 0 0 0-9.011149-2.122461c-8.173336 0-15.918456 4.877936-19.809634 12.399639-2.308642 3.667761-2.308642 7.875447-2.308641 11.599062v0.297889l7.26105 59.652318-40.978387 44.162079-0.055855 0.055854c-7.800974 8.918059-7.223814 22.732672 1.284648 30.198521l0.242035 0.223417 0.279271 0.148944c2.681003 1.787335 5.697132 3.816706 9.848962 4.8407l0.111709 0.037236 50.492224 10.370269-115.469312-0.186181V486.399423h117.368356z m56.114884 32.898142L489.881725 486.399423h37.45957l-18.729785 32.898142z m-26.605232-46.731373l-0.018618-0.055855c-3.276782-5.436478-8.676024-9.532455-14.03803-10.575067l-52.260942-10.742631 36.528667-39.377232c4.468338-4.505575 6.497709-10.984665 5.473715-17.407902l-6.423237-52.800866 47.941548 22.17413 0.111709 0.055854c2.625149 1.079848 5.492333 1.619773 8.545697 1.619772 2.941656 0 5.939167-0.502688 8.918059-1.508064l0.242035-0.074472 48.928306-22.323074-6.423237 52.85672a20.219231 20.219231 0 0 0 5.473715 17.407902l36.528667 39.377232-52.205088 10.742631a18.915966 18.915966 0 0 0-14.317301 10.966047l-7.521703 13.237453-37.794696-0.074473-7.689266-13.498105zM51.891466 542.793578A481.742739 481.742739 0 0 1 27.930001 393.309038c0-194.037597 114.445319-360.948656 279.271153-438.139203v-20.647447C131.763016 12.978964 9.311924 188.696374 9.311924 393.309038c0 52.912574 8.731878 103.646834 23.980083 151.495292A37.124445 37.124445 0 0 0 9.311924 579.489807a37.236154 37.236154 0 1 0 74.472308 0 37.143063 37.143063 0 0 0-31.892766-36.696229z"  horiz-adv-x="1024" />

    
    <glyph glyph-name="yonghufenxi" unicode="&#59044;" d="M512-109.379037c-19.977196 0-39.507559 1.675627-58.833123 4.040122A37.254772 37.254772 0 1 0 418.909616-53.524807c19.288328 0 34.983366-14.726899 36.863792-33.531156 18.469132-2.196933 37.161681-3.704997 56.226592-3.704997 267.336966 0 484.069999 216.733033 484.069999 484.069998a485.187083 485.187083 0 0 1-9.160094 93.090385h18.822876c5.659895-30.198521 8.955295-61.234855 8.955295-93.090385 0-277.632762-225.055313-502.688076-502.688076-502.688075z m446.833845 670.250767a37.236154 37.236154 0 0 0-37.236154 37.236154c0 11.654916 5.455097 21.913476 13.833231 28.746311C853.008696 776.078081 694.531626 877.379037 512 877.379037 357.116218 877.379037 219.584485 804.377558 130.962439 691.198269H107.745697C199.290781 815.213279 346.019845 895.997114 512 895.997114c190.034711 0 355.00949-105.694822 440.429227-261.304709 2.085225 0.372362 4.207685 0.651633 6.404618 0.651633a37.236154 37.236154 0 1 0 0-74.472308z m-906.942379-18.078152A481.742739 481.742739 0 0 1 27.930001 393.309038c0-194.037597 114.445319-360.948656 279.271153-438.139203v-20.647447C131.763016 12.978964 9.311924 188.696374 9.311924 393.309038c0 52.912574 8.731878 103.646834 23.980083 151.495292A37.124445 37.124445 0 0 0 9.311924 579.489807a37.236154 37.236154 0 1 0 74.472308 0 37.143063 37.143063 0 0 0-31.892766-36.696229z m324.624789-119.993506c0.726105-0.48407 1.45221-1.228793 2.42035-1.712863 0.614397-0.428216 0.949522-1.06123 1.489446-1.5453 0.614397-0.57716 1.35912-0.930904 1.899044-1.601155 0.204799-0.260653 0.242035-0.57716 0.428215-0.837813 0.651633-0.912286 1.06123-1.917662 1.508065-2.923038 0.409598-0.930904 0.87505-1.805953 1.098466-2.774094 0.223417-0.930904 0.204799-1.880426 0.242035-2.829948 0.074472-1.172939 0.167563-2.290023-0.018618-3.425726-0.130327-0.781959-0.446834-1.489446-0.688869-2.252787a15.173733 15.173733 0 0 0-1.526682-3.630525c-0.148945-0.242035-0.167563-0.502688-0.316507-0.744723-0.279271-0.353743-0.726105-0.521306-1.023995-0.856432-0.707487-0.856432-1.228793-1.824572-2.12246-2.532058a210.309796 210.309796 0 0 1-77.730471-163.299152c0-8.731878-7.26105-16.011546-15.992928-16.011546A16.234963 16.234963 0 0 0 269.965001 232.076493a240.67588 240.67588 0 0 0 75.291502 175.345048 97.149125 97.149125 0 0 0-9.904816 121.892549c0.726105 1.210175 1.694245 2.42035 2.42035 3.407108a16.160491 16.160491 0 0 0 22.75129 2.662385 16.0674 16.0674 0 0 0 3.165073-22.081039c-21.559733-28.392567-15.750893-68.905503 12.827855-90.502472z m361.544434-206.97716a16.253581 16.253581 0 0 0-16.234963 16.253581c0 63.320079-28.318095 123.493704-77.730471 163.299152-0.335125 0.260653-0.465452 0.651633-0.781959 0.930904-0.297889 0.279271-0.502688 0.633015-0.781959 0.930904a15.713657 15.713657 0 0 0-4.226303 10.630922l-0.018619 0.130326c0 0.074472 0.055854 0.130327 0.055855 0.223417a15.899838 15.899838 0 0 0 2.234169 7.800974c0.39098 0.707487 0.57716 1.508064 1.098466 2.159697 0.781959 0.949522 1.861808 1.470828 2.792712 2.215551 0.335125 0.260653 0.48407 0.707487 0.837813 0.930904a64.846762 64.846762 0 0 1 15.266824 92.45737 16.216345 16.216345 0 0 0 3.146454 22.565109 15.00617 15.00617 0 0 0 9.6814 3.146455c5.082735 0 9.923435-2.42035 12.827855-6.534945 28.969728-38.63251 24.575861-91.396139-7.707883-125.132095A242.407361 242.407361 0 0 0 754.034999 232.318528c0-9.215948-7.26105-16.495616-15.97431-16.495616z m-292.285188 180.930471c-37.124445 22.676818-62.147141 63.320079-61.998196 109.995598 0 71.102436 57.883601 128.85571 128.837092 128.595057 70.934873 0 128.576439-57.976691 128.334403-129.079127-0.148945-46.545192-25.059931-86.909183-61.979577-109.474292a177.914343 177.914343 0 0 0 110.64723-164.714126v-30.086813A50.790114 50.790114 0 0 0 639.01252 151.274039H385.229515a50.473606 50.473606 0 0 0-50.603933 50.715641v27.88988c0 74.993614 45.837705 140.045174 111.149919 166.873823z m163.206061 110.237633a97.39116 97.39116 0 0 1-96.851235 97.056035 96.925708 96.925708 0 0 1-96.869854-97.056035 96.925708 96.925708 0 0 1 96.869854-97.056035 96.925708 96.925708 0 0 1 96.851235 97.056035zM366.834855 212.173768c0-15.769511 12.827855-28.634602 28.56013-28.634602h233.452065a28.671838 28.671838 0 0 1 28.578749 28.634602V232.076493c-0.242035 80.318384-65.144651 145.332708-145.295472 145.574743-80.169439 0-145.295472-65.256359-145.295472-145.574743v-19.902725z"  horiz-adv-x="1024" />

    
    <glyph glyph-name="IMSI" unicode="&#59042;" d="M0-128V670.319304L89.043478 762.434783l134.455652 133.565217H1335.652174v-1024H0zM1246.608696 806.956522H267.130435L171.141565 710.967652 89.043478 628.869565v-667.826087h1157.565218V806.956522zM219.358609 140.688696H178.086957V540.182261h41.271652v-399.493565z m173.634782 139.753739c0.712348-6.989913 2.092522-21.058783 3.695305-42.340174 0 3.561739 0.311652 8.192 1.202087 14.113391 0 15.36 0.890435 24.620522 2.537739 28.226783l48.795826 258.359652h85.125565v-398.514087h-44.521739v236.81113c0 25.911652-1.869913 54.717217-0.222609 86.550261h-4.006956c-3.250087-29.473391-8.058435-51.2-11.353044-65.313391l-51.2-257.825391H370.643478l-51.2 264.993391a3906.782609 3906.782609 0 0 0-9.972869 60.015304h-1.202087c0-6.945391 0.311652-17.051826 1.202087-29.874087 0.75687-35.172174 1.202087-60.460522 1.202087-75.820521v-218.913392h-41.939479V538.802087h75.597913l48.662261-258.359652z m307.066435-75.820522c27.38087 1.024 41.984 17.051826 43.631304 47.593739 0.712348 21.23687-8.815304 37.665391-28.716521 49.463652-20.836174 10.551652-39.17913 17.497043-54.939826 21.058783-50.621217 15.181913-75.152696 52.847304-73.549913 112.90713 5.075478 64.645565 38.733913 99.372522 101.064347 104.002783 65.669565 2.537739 103.913739-34.103652 114.777044-109.30087l-61.17287-15.760695c-4.185043 37.665391-21.281391 56.409043-51.2 56.409043-24.130783-1.246609-37.086609-13.445565-38.689391-37.042087-1.647304-21.058783 14.558609-37.086609 48.662261-47.593739 26.624-8.236522 48.217043-18.966261 64.868174-31.833043 29.206261-23.552 44.076522-56.409043 44.966956-98.927305-2.537739-75.197217-38.689391-114.153739-108.499478-116.468869-69.810087-1.068522-111.482435 41.894957-124.749913 128.890435l61.17287 17.67513c5.075478-54.138435 25.778087-81.074087 62.374956-81.074087zM890.434783 140.688696h-44.076522V540.182261H890.434783v-399.493565zM1157.565217 628.869565h-133.565217V673.391304h133.565217v-44.521739z m0-133.565217h-133.565217V539.826087h133.565217v-44.521739z m0-133.565218h-133.565217v44.52174h133.565217v-44.52174z m0-133.565217h-133.565217v44.521739h133.565217v-44.521739z m0-133.565217h-133.565217v44.521739h133.565217v-44.521739z"  horiz-adv-x="1335" />

    
    <glyph glyph-name="haoma" unicode="&#59040;" d="M170.666667-128V896h682.666666v-1024H170.666667zM785.066667 827.733333H238.933333v-887.466666h546.133334V827.733333zM375.466667 520.533333a34.133333 34.133333 0 1 0 0-68.266666 34.133333 34.133333 0 0 0 0 68.266666z m0-136.533333a34.133333 34.133333 0 1 0 0-68.266667 34.133333 34.133333 0 0 0 0 68.266667z m136.533333 136.533333a34.133333 34.133333 0 1 0 0-68.266666 34.133333 34.133333 0 0 0 0 68.266666z m0-136.533333a34.133333 34.133333 0 1 0 0-68.266667 34.133333 34.133333 0 0 0 0 68.266667z m0-136.533333a34.133333 34.133333 0 1 0 0-68.266667 34.133333 34.133333 0 0 0 0 68.266667z m136.533333 273.066666a34.133333 34.133333 0 1 0 0-68.266666 34.133333 34.133333 0 0 0 0 68.266666z m0-136.533333a34.133333 34.133333 0 1 0 0-68.266667 34.133333 34.133333 0 0 0 0 68.266667zM375.466667 725.333333h273.066666v-34.133333H375.466667V725.333333z"  horiz-adv-x="1024" />

    
    <glyph glyph-name="zhongduanxinghao" unicode="&#59041;" d="M170.666667-128V896h682.666666v-1024H170.666667z m341.333333 34.133333a34.133333 34.133333 0 1 1 0 68.266667 34.133333 34.133333 0 0 1 0-68.266667z m102.4 955.733334H409.6v-34.133334h204.8V861.866667z m170.666667-68.266667H238.933333v-785.066667h546.133334V793.6z"  horiz-adv-x="1024" />

    
    <glyph glyph-name="shanchu1" unicode="&#58920;" d="M938.666667 554.666667v-682.666667H85.333333V554.666667H0V640h170.666667V896h682.666666v-256h170.666667v-85.333333h-85.333333zM768 810.666667H256v-170.666667h512V810.666667z m85.333333-256H170.666667v-597.333334h170.666666V384h85.333334v-426.666667h170.666666V384h85.333334v-426.666667h170.666666V554.666667z"  horiz-adv-x="1024" />

    
    <glyph glyph-name="wanchengbingdaochu" unicode="&#58919;" d="M0-128V896h1024v-1024H0zM938.666667 810.666667H85.333333v-853.333334h853.333334V810.666667zM342.016 529.664l120.661333-120.661333L704 650.325333l120.661333-120.661333-361.984-362.069333-120.661333 120.746666-120.746667 120.661334 120.746667 120.661333z"  horiz-adv-x="1024" />

    
    <glyph glyph-name="tianjiaquyu" unicode="&#58910;" d="M0-128V896h1024v-1024H0zM938.666667 810.666667H85.333333v-853.333334h853.333334V810.666667zM426.666667 640h170.666666v-170.666667h170.666667v-170.666666H597.333333v-170.666667H426.666667V298.666667H256V469.333333h170.666667V640z"  horiz-adv-x="1024" />

    
    <glyph glyph-name="shuzhuangzhankai" unicode="&#59038;" d="M1024-128L0 896h2048L1024-128z"  horiz-adv-x="2048" />

    
    <glyph glyph-name="shuzhuangshousuo" unicode="&#59039;" d="M768 384L256-128V896l512-512z"  horiz-adv-x="1024" />

    
    <glyph glyph-name="xieyuanturenwu" unicode="&#59037;" d="M853.333333-128H170.666667a170.666667 170.666667 0 0 0-170.666667 170.666667V640a170.666667 170.666667 0 0 0 170.666667 170.666667h85.333333a85.333333 85.333333 0 0 0 85.333333 85.333333h341.333334a85.333333 85.333333 0 0 0 85.333333-85.333333h85.333333a170.666667 170.666667 0 0 0 170.666667-170.666667v-597.333333a170.666667 170.666667 0 0 0-170.666667-170.666667z m85.333334 768a85.333333 85.333333 0 0 1-85.333334 85.333333H768a85.333333 85.333333 0 0 0-85.333333-85.333333H341.333333a85.333333 85.333333 0 0 0-85.333333 85.333333H170.666667a85.333333 85.333333 0 0 1-85.333334-85.333333v-597.333333a85.333333 85.333333 0 0 1 85.333334-85.333334h682.666666a85.333333 85.333333 0 0 1 85.333334 85.333334V640zM426.666667 298.666667h341.333333v-85.333334H426.666667V298.666667z m0 170.666666h341.333333v-85.333333H426.666667V469.333333zM256 298.666667h85.333333v-85.333334H256V298.666667z m0 170.666666h85.333333v-85.333333H256V469.333333z"  horiz-adv-x="1024" />

    
    <glyph glyph-name="xieyuantubiao" unicode="&#59036;" d="M853.333333-128H170.666667a170.666667 170.666667 0 0 0-170.666667 170.666667V725.333333a170.666667 170.666667 0 0 0 170.666667 170.666667h682.666666a170.666667 170.666667 0 0 0 170.666667-170.666667v-682.666666a170.666667 170.666667 0 0 0-170.666667-170.666667z m-426.666666 85.333333h170.666666V128H426.666667v-170.666667z m0 256h170.666666V384H426.666667v-170.666667zM341.333333 640H85.333333v-170.666667h256V640z m0-256H85.333333v-170.666667h256V384z m0-256H85.333333v-85.333333a85.333333 85.333333 0 0 1 85.333334-85.333334h170.666666V128z m85.333334 512v-170.666667h170.666666V640H426.666667z m512 0H682.666667v-170.666667h256V640z m0-256H682.666667v-170.666667h256V384z m0-256H682.666667v-170.666667h170.666666a85.333333 85.333333 0 0 1 85.333334 85.333334V128z"  horiz-adv-x="1024" />

    
    <glyph glyph-name="xieyuantujiantou" unicode="&#59033;" d="M791.272727 381.114182L232.727273-128l102.772363 512L232.727273 896l558.545454-514.885818z"  horiz-adv-x="1024" />

    
    <glyph glyph-name="xieyuantujiantoushang" unicode="&#59034;" d="M943.957333 896L1877.333333-128 938.666667 60.416 0-128l943.957333 1024z"  horiz-adv-x="1877" />

    
    <glyph glyph-name="xieyuantudian" unicode="&#59035;" d="M512 896a512 512 0 1 0 0-1024 512 512 0 0 0 0 1024z"  horiz-adv-x="1024" />

    
    <glyph glyph-name="shujuzhiliangjiankong" unicode="&#59032;" d="M0 128V896h1024v-768H0z m713.557333 516.010667l-75.776 39.168-2.218666-4.266667-1.28 2.218667-73.898667-42.666667 28.672-49.578667-74.410667-143.957333-104.533333 180.992 28.842667 52.309333-74.666667 41.216-37.546667-68.096-22.357333-12.885333 7.765333-13.482667-153.770666-279.210666 74.666666-41.216 129.024 234.069333 112.981334-195.754667 36.778666 21.248 45.056-23.296 82.858667 160.256 91.306667-158.208 73.898666 42.666667-118.698666 205.653333 27.306666 52.821334zM768-128H256v170.666667h512v-170.666667z"  horiz-adv-x="1024" />

    
    <glyph glyph-name="fuwumuluguanli" unicode="&#59030;" d="M853.333333-128H768a170.666667 170.666667 0 0 0-170.666667 170.666667V298.666667h256a170.666667 170.666667 0 0 0 170.666667-170.666667v-85.333333a170.666667 170.666667 0 0 0-170.666667-170.666667z m0 597.333333H597.333333V725.333333a170.666667 170.666667 0 0 0 170.666667 170.666667h85.333333a170.666667 170.666667 0 0 0 170.666667-170.666667v-85.333333a170.666667 170.666667 0 0 0-170.666667-170.666667z m-597.333333-597.333333H170.666667a170.666667 170.666667 0 0 0-170.666667 170.666667V128a170.666667 170.666667 0 0 0 170.666667 170.666667h256v-256a170.666667 170.666667 0 0 0-170.666667-170.666667zM0 640V725.333333a170.666667 170.666667 0 0 0 170.666667 170.666667h85.333333a170.666667 170.666667 0 0 0 170.666667-170.666667v-256H170.666667a170.666667 170.666667 0 0 0-170.666667 170.666667z"  horiz-adv-x="1024" />

    
    </font>
</defs>
</svg>
